<mxfile host="app.diagrams.net" modified="2023-08-03T06:27:47.338Z" agent="Mozilla/5.0 (Macintosh; Intel Mac OS X 10_15_7) AppleWebKit/537.36 (KHTML, like Gecko) Chrome/115.0.0.0 Safari/537.36 Edg/115.0.1901.188" etag="IKs_V0zO258fBv6dO0a-" version="21.6.6" type="github">
  <diagram name="Page-1" id="vr03KfxtmkKFMguLnpdO">
    <mxGraphModel dx="684" dy="441" grid="1" gridSize="10" guides="1" tooltips="1" connect="1" arrows="1" fold="1" page="1" pageScale="1" pageWidth="827" pageHeight="1169" math="0" shadow="0">
      <root>
        <mxCell id="0" />
        <mxCell id="1" parent="0" />
        <mxCell id="I9Uy7T2hmdNrnqf8XXNY-4" value="Agent Pool" style="rounded=1;whiteSpace=wrap;html=1;align=center;verticalAlign=top;" vertex="1" parent="1">
          <mxGeometry x="70" y="70" width="120" height="340" as="geometry" />
        </mxCell>
        <mxCell id="I9Uy7T2hmdNrnqf8XXNY-2" value="Telco Cloud" style="shape=cylinder3;whiteSpace=wrap;html=1;boundedLbl=1;backgroundOutline=1;size=15;" vertex="1" parent="1">
          <mxGeometry x="100" y="110" width="60" height="80" as="geometry" />
        </mxCell>
        <mxCell id="I9Uy7T2hmdNrnqf8XXNY-13" style="edgeStyle=orthogonalEdgeStyle;rounded=0;orthogonalLoop=1;jettySize=auto;html=1;entryX=0.5;entryY=0;entryDx=0;entryDy=0;" edge="1" parent="1" source="I9Uy7T2hmdNrnqf8XXNY-5" target="I9Uy7T2hmdNrnqf8XXNY-11">
          <mxGeometry relative="1" as="geometry" />
        </mxCell>
        <mxCell id="I9Uy7T2hmdNrnqf8XXNY-5" value="Manual" style="triangle;whiteSpace=wrap;html=1;align=center;" vertex="1" parent="1">
          <mxGeometry x="440" width="76" height="80" as="geometry" />
        </mxCell>
        <mxCell id="I9Uy7T2hmdNrnqf8XXNY-18" style="edgeStyle=orthogonalEdgeStyle;rounded=0;orthogonalLoop=1;jettySize=auto;html=1;entryX=0.5;entryY=0;entryDx=0;entryDy=0;" edge="1" parent="1" source="I9Uy7T2hmdNrnqf8XXNY-8" target="I9Uy7T2hmdNrnqf8XXNY-11">
          <mxGeometry relative="1" as="geometry">
            <Array as="points">
              <mxPoint x="590" y="130" />
              <mxPoint x="590" y="40" />
              <mxPoint x="670" y="40" />
            </Array>
          </mxGeometry>
        </mxCell>
        <mxCell id="I9Uy7T2hmdNrnqf8XXNY-8" value="Pull Request" style="triangle;whiteSpace=wrap;html=1;align=center;" vertex="1" parent="1">
          <mxGeometry x="440" y="90" width="76" height="80" as="geometry" />
        </mxCell>
        <mxCell id="I9Uy7T2hmdNrnqf8XXNY-17" style="edgeStyle=orthogonalEdgeStyle;rounded=0;orthogonalLoop=1;jettySize=auto;html=1;" edge="1" parent="1" source="I9Uy7T2hmdNrnqf8XXNY-9">
          <mxGeometry relative="1" as="geometry">
            <mxPoint x="670" y="80" as="targetPoint" />
            <Array as="points">
              <mxPoint x="590" y="220" />
              <mxPoint x="590" y="40" />
              <mxPoint x="670" y="40" />
            </Array>
          </mxGeometry>
        </mxCell>
        <mxCell id="I9Uy7T2hmdNrnqf8XXNY-9" value="Schedule" style="triangle;whiteSpace=wrap;html=1;align=center;" vertex="1" parent="1">
          <mxGeometry x="440" y="180" width="76" height="80" as="geometry" />
        </mxCell>
        <mxCell id="I9Uy7T2hmdNrnqf8XXNY-27" style="edgeStyle=orthogonalEdgeStyle;rounded=0;orthogonalLoop=1;jettySize=auto;html=1;entryX=0.5;entryY=0;entryDx=0;entryDy=0;" edge="1" parent="1" source="I9Uy7T2hmdNrnqf8XXNY-10" target="I9Uy7T2hmdNrnqf8XXNY-26">
          <mxGeometry relative="1" as="geometry" />
        </mxCell>
        <mxCell id="I9Uy7T2hmdNrnqf8XXNY-10" value="&lt;ul&gt;&lt;li&gt;Print ENV vars&lt;/li&gt;&lt;li&gt;Generate O2_BUILD_NUMBER&lt;/li&gt;&lt;/ul&gt;" style="rounded=0;whiteSpace=wrap;html=1;align=left;labelBorderColor=none;" vertex="1" parent="1">
          <mxGeometry x="561.5" y="270" width="217" height="60" as="geometry" />
        </mxCell>
        <mxCell id="I9Uy7T2hmdNrnqf8XXNY-12" style="edgeStyle=orthogonalEdgeStyle;rounded=0;orthogonalLoop=1;jettySize=auto;html=1;entryX=0.5;entryY=0;entryDx=0;entryDy=0;" edge="1" parent="1" source="I9Uy7T2hmdNrnqf8XXNY-11" target="I9Uy7T2hmdNrnqf8XXNY-10">
          <mxGeometry relative="1" as="geometry" />
        </mxCell>
        <mxCell id="I9Uy7T2hmdNrnqf8XXNY-11" value="Start" style="ellipse;whiteSpace=wrap;html=1;aspect=fixed;" vertex="1" parent="1">
          <mxGeometry x="640" y="80" width="60" height="60" as="geometry" />
        </mxCell>
        <mxCell id="I9Uy7T2hmdNrnqf8XXNY-15" style="edgeStyle=orthogonalEdgeStyle;rounded=0;orthogonalLoop=1;jettySize=auto;html=1;entryX=0;entryY=0.5;entryDx=0;entryDy=0;" edge="1" parent="1" source="I9Uy7T2hmdNrnqf8XXNY-14" target="I9Uy7T2hmdNrnqf8XXNY-5">
          <mxGeometry relative="1" as="geometry" />
        </mxCell>
        <mxCell id="I9Uy7T2hmdNrnqf8XXNY-14" value="" style="shape=umlActor;verticalLabelPosition=bottom;verticalAlign=top;html=1;outlineConnect=0;" vertex="1" parent="1">
          <mxGeometry x="330" y="10" width="30" height="60" as="geometry" />
        </mxCell>
        <mxCell id="I9Uy7T2hmdNrnqf8XXNY-22" value="" style="group" vertex="1" connectable="0" parent="1">
          <mxGeometry x="531.5" y="115" width="30" height="30" as="geometry" />
        </mxCell>
        <mxCell id="I9Uy7T2hmdNrnqf8XXNY-20" value="" style="endArrow=none;html=1;rounded=0;" edge="1" parent="I9Uy7T2hmdNrnqf8XXNY-22">
          <mxGeometry width="50" height="50" relative="1" as="geometry">
            <mxPoint y="30" as="sourcePoint" />
            <mxPoint x="30" as="targetPoint" />
          </mxGeometry>
        </mxCell>
        <mxCell id="I9Uy7T2hmdNrnqf8XXNY-21" value="" style="endArrow=none;html=1;rounded=0;" edge="1" parent="I9Uy7T2hmdNrnqf8XXNY-22">
          <mxGeometry width="50" height="50" relative="1" as="geometry">
            <mxPoint x="30" y="30" as="sourcePoint" />
            <mxPoint as="targetPoint" />
          </mxGeometry>
        </mxCell>
        <mxCell id="I9Uy7T2hmdNrnqf8XXNY-23" value="" style="group" vertex="1" connectable="0" parent="1">
          <mxGeometry x="530" y="205" width="30" height="30" as="geometry" />
        </mxCell>
        <mxCell id="I9Uy7T2hmdNrnqf8XXNY-24" value="" style="endArrow=none;html=1;rounded=0;" edge="1" parent="I9Uy7T2hmdNrnqf8XXNY-23">
          <mxGeometry width="50" height="50" relative="1" as="geometry">
            <mxPoint y="30" as="sourcePoint" />
            <mxPoint x="30" as="targetPoint" />
          </mxGeometry>
        </mxCell>
        <mxCell id="I9Uy7T2hmdNrnqf8XXNY-25" value="" style="endArrow=none;html=1;rounded=0;" edge="1" parent="I9Uy7T2hmdNrnqf8XXNY-23">
          <mxGeometry width="50" height="50" relative="1" as="geometry">
            <mxPoint x="30" y="30" as="sourcePoint" />
            <mxPoint as="targetPoint" />
          </mxGeometry>
        </mxCell>
        <mxCell id="I9Uy7T2hmdNrnqf8XXNY-29" value="Reference" style="edgeStyle=orthogonalEdgeStyle;rounded=0;orthogonalLoop=1;jettySize=auto;html=1;entryX=0;entryY=0.5;entryDx=0;entryDy=0;" edge="1" parent="1" source="I9Uy7T2hmdNrnqf8XXNY-26" target="I9Uy7T2hmdNrnqf8XXNY-28">
          <mxGeometry relative="1" as="geometry" />
        </mxCell>
        <mxCell id="I9Uy7T2hmdNrnqf8XXNY-31" style="edgeStyle=orthogonalEdgeStyle;rounded=0;orthogonalLoop=1;jettySize=auto;html=1;entryX=0.5;entryY=0;entryDx=0;entryDy=0;" edge="1" parent="1" source="I9Uy7T2hmdNrnqf8XXNY-26" target="I9Uy7T2hmdNrnqf8XXNY-30">
          <mxGeometry relative="1" as="geometry" />
        </mxCell>
        <mxCell id="I9Uy7T2hmdNrnqf8XXNY-26" value="&lt;ul&gt;&lt;li&gt;Clean old image tags&lt;/li&gt;&lt;/ul&gt;" style="rounded=0;whiteSpace=wrap;html=1;align=left;labelBorderColor=none;" vertex="1" parent="1">
          <mxGeometry x="561.5" y="390" width="217" height="60" as="geometry" />
        </mxCell>
        <mxCell id="I9Uy7T2hmdNrnqf8XXNY-28" value="&lt;ul&gt;&lt;li&gt;azure-clean-old-image-tags.yml&lt;/li&gt;&lt;/ul&gt;" style="rounded=0;whiteSpace=wrap;html=1;align=left;labelBorderColor=none;" vertex="1" parent="1">
          <mxGeometry x="900" y="390" width="217" height="60" as="geometry" />
        </mxCell>
        <mxCell id="I9Uy7T2hmdNrnqf8XXNY-35" style="edgeStyle=orthogonalEdgeStyle;rounded=0;orthogonalLoop=1;jettySize=auto;html=1;entryX=0.5;entryY=0;entryDx=0;entryDy=0;" edge="1" parent="1" source="I9Uy7T2hmdNrnqf8XXNY-30" target="I9Uy7T2hmdNrnqf8XXNY-34">
          <mxGeometry relative="1" as="geometry" />
        </mxCell>
        <mxCell id="I9Uy7T2hmdNrnqf8XXNY-30" value="&lt;ul&gt;&lt;li&gt;Download secure file from ADO Library&lt;/li&gt;&lt;/ul&gt;" style="rounded=0;whiteSpace=wrap;html=1;align=left;labelBorderColor=none;" vertex="1" parent="1">
          <mxGeometry x="561.5" y="510" width="217" height="60" as="geometry" />
        </mxCell>
        <mxCell id="I9Uy7T2hmdNrnqf8XXNY-37" style="edgeStyle=orthogonalEdgeStyle;rounded=0;orthogonalLoop=1;jettySize=auto;html=1;entryX=0.5;entryY=0;entryDx=0;entryDy=0;" edge="1" parent="1" source="I9Uy7T2hmdNrnqf8XXNY-34" target="I9Uy7T2hmdNrnqf8XXNY-36">
          <mxGeometry relative="1" as="geometry" />
        </mxCell>
        <mxCell id="I9Uy7T2hmdNrnqf8XXNY-34" value="&lt;ul&gt;&lt;li&gt;Remove the following directories thus that they will be re-generated on the fly:&lt;/li&gt;&lt;ul&gt;&lt;li&gt;$(HOME)/jib&lt;/li&gt;&lt;li&gt;$(HOME)/mvn/repository/nz/co/spark&lt;/li&gt;&lt;/ul&gt;&lt;li&gt;Append the following paths to PATH var:&lt;/li&gt;&lt;ul&gt;&lt;li&gt;$JAVA_HOME/bin&lt;/li&gt;&lt;li&gt;$MAVEN_HOME/bin&lt;/li&gt;&lt;/ul&gt;&lt;li&gt;Set MAVEN_OPTS to &#39;-Djib.skip=false&#39;&lt;/li&gt;&lt;/ul&gt;" style="rounded=0;whiteSpace=wrap;html=1;align=left;labelBorderColor=none;strokeColor=default;" vertex="1" parent="1">
          <mxGeometry x="520.75" y="630" width="298.5" height="120" as="geometry" />
        </mxCell>
        <mxCell id="I9Uy7T2hmdNrnqf8XXNY-41" style="edgeStyle=orthogonalEdgeStyle;rounded=0;orthogonalLoop=1;jettySize=auto;html=1;entryX=0.5;entryY=0;entryDx=0;entryDy=0;" edge="1" parent="1" source="I9Uy7T2hmdNrnqf8XXNY-36" target="I9Uy7T2hmdNrnqf8XXNY-40">
          <mxGeometry relative="1" as="geometry" />
        </mxCell>
        <mxCell id="I9Uy7T2hmdNrnqf8XXNY-36" value="&lt;ul&gt;&lt;li&gt;Download secure file from ADO Library&lt;/li&gt;&lt;li&gt;Use &#39;oc login&#39; to login to the following OpenShift cluster:&lt;/li&gt;&lt;ul&gt;&lt;li&gt;m.reg.ocp.internal.spark.co.nz:8443&lt;/li&gt;&lt;/ul&gt;&lt;/ul&gt;" style="rounded=0;whiteSpace=wrap;html=1;align=left;labelBorderColor=none;" vertex="1" parent="1">
          <mxGeometry x="525.75" y="810" width="288.5" height="80" as="geometry" />
        </mxCell>
        <mxCell id="I9Uy7T2hmdNrnqf8XXNY-43" style="edgeStyle=orthogonalEdgeStyle;rounded=0;orthogonalLoop=1;jettySize=auto;html=1;entryX=0;entryY=0.5;entryDx=0;entryDy=0;" edge="1" parent="1" source="I9Uy7T2hmdNrnqf8XXNY-40" target="I9Uy7T2hmdNrnqf8XXNY-42">
          <mxGeometry relative="1" as="geometry" />
        </mxCell>
        <mxCell id="I9Uy7T2hmdNrnqf8XXNY-40" value="Use MAVEN to build and push Docker image to Docker registry:&lt;br&gt;&lt;br&gt;mvn&lt;br&gt;$(BUILD_MAVEN_OPT)&lt;br&gt;$MAVEN_OPTS&lt;br&gt;-Dmaven.repo.local=$(MAVEN_REPO_LOCAL)&lt;br&gt;-Djib.baseImageCache=$(JIB_BASEIMAGECACHE)&lt;br&gt;-Djib.allowInsecureRegistries=true&lt;br&gt;-Djib.from.auth.username=$(oc whoami)&lt;br&gt;-Djib.from.auth.password=$(oc whoami -t)&lt;br&gt;-Djib.to.auth.username=$(oc whoami)&lt;br&gt;-Djib.to.auth.password=$(oc whoami -t)&lt;br&gt;-Dsettings.security=$(mvnSecuritySettings.secureFilePath)&lt;br&gt;-Drevision=$(O2_BUILD_REVISION)&lt;br&gt;-DDOCKER_REGISTRY=$(DOCKER_REGISTRY)&lt;br&gt;-DREGISTRY_PROJECT=$(REGISTRY_PROJECT)&lt;br&gt;-f $(Build.SourcesDirectory)/o2/app/support/pom.xml&lt;br&gt;-s $(Build.SourcesDirectory)/o2/settings.xml&lt;br&gt;clean install" style="rounded=0;whiteSpace=wrap;html=1;align=left;" vertex="1" parent="1">
          <mxGeometry x="495" y="950" width="350" height="280" as="geometry" />
        </mxCell>
        <mxCell id="I9Uy7T2hmdNrnqf8XXNY-42" value="" style="shape=image;verticalLabelPosition=bottom;labelBackgroundColor=default;verticalAlign=top;aspect=fixed;imageAspect=0;image=data:image/png,iVBORw0KGgoAAAANSUhEUgAAARcAAAJMCAYAAADQcuJ9AAABWWlDQ1BJQ0MgUHJvZmlsZQAAKJF1kE9LAlEUxc+k4TAFZQltWkgtIjDJP1/AJCxoMUxFGkSNT9NAp8c4EUa79tGqXZsKoUVrc9cHaBcURNvoAwRuSl73aTVadOG+8+Nw3uVygT7V5LzkBVC2HNtIzQXTmfWg7xUqPPAjgjGTVXhC15cogm/treYDFKn3M3LWxUt1Qj2KaMZm+njoDFd/8z2l5fIVRvpBHWbcdgAlRKzvO1zyIXHApqWITyQXOnwpOdvhm3ZmxUgS3xEPs6KZI34mDmW7/EIXl0t77GsHuf1g3lpdJh2hHscCdAQxjyjipCl68U8+3s4nsQuOKmzsoIAiHPqVIIejhDzxIiwwhBEijmKWOibv/Pt+rnfQoGtvAP0118uMAteUDEy53qQG+M+BxhY3bfPnqkrTW9mORTs8UKc5p0K8rQG+aaD1KMR7XYhWDfA8AbfNT2IAXz1VGxWRAAAAVmVYSWZNTQAqAAAACAABh2kABAAAAAEAAAAaAAAAAAADkoYABwAAABIAAABEoAIABAAAAAEAAAEXoAMABAAAAAEAAAJMAAAAAEFTQ0lJAAAAU2NyZWVuc2hvdHxWWAkAAAHWaVRYdFhNTDpjb20uYWRvYmUueG1wAAAAAAA8eDp4bXBtZXRhIHhtbG5zOng9ImFkb2JlOm5zOm1ldGEvIiB4OnhtcHRrPSJYTVAgQ29yZSA2LjAuMCI+CiAgIDxyZGY6UkRGIHhtbG5zOnJkZj0iaHR0cDovL3d3dy53My5vcmcvMTk5OS8wMi8yMi1yZGYtc3ludGF4LW5zIyI+CiAgICAgIDxyZGY6RGVzY3JpcHRpb24gcmRmOmFib3V0PSIiCiAgICAgICAgICAgIHhtbG5zOmV4aWY9Imh0dHA6Ly9ucy5hZG9iZS5jb20vZXhpZi8xLjAvIj4KICAgICAgICAgPGV4aWY6UGl4ZWxZRGltZW5zaW9uPjU4ODwvZXhpZjpQaXhlbFlEaW1lbnNpb24+CiAgICAgICAgIDxleGlmOlBpeGVsWERpbWVuc2lvbj4yNzk8L2V4aWY6UGl4ZWxYRGltZW5zaW9uPgogICAgICAgICA8ZXhpZjpVc2VyQ29tbWVudD5TY3JlZW5zaG90PC9leGlmOlVzZXJDb21tZW50PgogICAgICA8L3JkZjpEZXNjcmlwdGlvbj4KICAgPC9yZGY6UkRGPgo8L3g6eG1wbWV0YT4Klo9ZEgAAQABJREFUeAHsnQdYFEcbx/80EUQQwV4QS6KoqAgWUKPGqFHsvUY0tphiqlFTNMUWS2Ji1NgTY2xJwJZoEvWzxC6WaCyIBQuKSBHp4LfvkF3vkOMOOO7g9p3nOXZ3+vzm9n/vvDOJVp6eNR6DAxNgAkzAyASsjVwfV8cEmAATEARYXPiLwASYQKEQYHEpFKxcKRNgAiwu/B1gAkygUAiwuBQKVq6UCTABFhf+DjABJlAoBFhcCgUrV8oEmACLC38HmAATKBQCLC6FgpUrZQJMgMWFvwNMgAkUCgEWl0LBypUyASZQKOJSwdYKo8vYoYadFRNmAkxApQSMLi5VJUFZUskeL5WxxaKK9qhVwuhNFNpUOTo6wt7eXtRvbW2NqlWrFlpbXDETsHQCtsYe4ABnW5SzybJYXKTrwgol8PrdVFxJzcxzUwMHDkLt2rV0ljtw4AD27t2rMz17gpOTEw4dOoz79++jXbu2SnK3bt3w8cfThLBkZmaiUSNvbN++Q4jLwoVfYdmyZdJnOVq0aIGpU6diy5YQpWxebho29MbYsWNRrVo10db9+1HYs2cvVq1aCWo3p9C6dWt069Yd9evXF/0+cGA/VqxYoTN/TnVwHBMwBwGjiQtZLENd7PBldCpcJVFp62gjxlMQgQkKCkLlypV1cqlZs1aexEWuqESJEvItyEL5/PMZsLKywt27d3Hs2FGR5ujoIK7Ozs7iamOTNR6ybvITPvvsc/To0UOraJUqVSQha4wxY8agc+dOiImJ0UqfPHkKBg8erMRVr14dPj4+6NOnL3r37oXExEQljW+YQFEjYBRxIWFZWMEe5SVfi5tNCXx4LxU7HWzQxckGrSWRKYjAELCtW7cgLOzKU+zOnfvnqbi8RjRu3EQIS3x8PDp0eF4p3rVrV3h7e+Pvv/9W4vJ7M2bMWEVYTpw4gd9+24GrV68Ki6Rjx44gwfr112B07PgCUlNTRTOdO3cWwkIWzZw5sxESEoJmzZrhiy/mgkSJxOqtt97Mb5e4HBModAIFFhdNYaHetpREpan02Z+YgYvSUojEhUJBBOa3337D/v37RT05/SlTpowQiOy//GShuLi4ICkpCQkJCU8VdXV1xTPPPCPi796NRLly5ZCenq5YEJcvX4atra2Ie6qwgRFkabz22msi9/Lly/DVV18pJY8ePQpadv3++064ublhyZKlGDkySKT36tVbXFeuXIEff/xR3O/evVtavn2EmTNnwc/PT6mHb5hAUSRQIG9rdmGRB/hCqSxBic54LERGjpcFxthOXvrV37dvv7SEqiI3Ja69evXC7t178PXXX2vFyw9//bVb+FDouU6dZ0TenTt3ieSVK1eJ5w4dOsjZ83UNDAwU5f79918tYZEri4qKwoQJr4hHspTkcO3aNZw8eRKbN2+Wo8T1zJkz4urgkLVs00rkByZQhAjk23LRJSw0Nm/7LM0aKW1Hf3I/FR+5l0CAZMFQrCww+XXy5sbO2jpvW9/BwcHCUerl5SX8F4cO/Y2bN2/m1kSe07y9G4kyf/75h86yhw8fFtYR7VSRj4eWaDNnzsgxv+yDuX37Vo7pHMkEigqBfImLk/QSyz6W3AYS4GCNOnYl8J7kgykhvfczy5dAc2nJJAtM0J0U3EvX/7/wHT78JbRq1fqppmbPnlWgXZNPPpmOLl26YPbsObh27SomTpz4VBsFjaCdIQoHDx7Mtaro6GhUqFABbdq0wbZt23LMSyI4aFCWg/eTTz7JMQ9HMoGiQiBf4uIqrXrKSc5bQ4KPJCZksaRKGnIyOVOIC5Ujgakq1WGIuNAWMH2yh3nz5ioO0OxpReW5ZMmSoivXr1/PtUtxcbFCXGhHKKdQvnx5fP/9D2J3i8Tn+PHjOWXjOCZQZAjkS1wi0h7ji+g0vOtmB30SU1LK8HG5EvgnJRMDpTMwclgbly7ERn7O7UrLlytXwp7KQs7Xoh7IyUzOWtrpIYesrlCxYiWRdPjwkaey0Pkc8ivRsik0NBSTJ7//VB6OYAJFjcCTtz2PPdvyMOvFzklg7kuOXAoJ/50Le15y8NJHDiQsS2LS5Ee91127dua6WyRXQGdWNIOVlfazZpqp7sPCwoS4NG/eXKe4UL9Lly6Nx48f49SpUK2ukaBs2bJV+GKuXg3HiBEvaaXzAxMoqgQK9PaRwJAFk91rMv9BlnAs/O+qOfi8CotmWV33GRkZIonOrGgGDw8PzUez3J84kbV8oa1lskByCp9//rnYSo+Li9PyIZHobN78s9giv3kzQjo411srPae6OI4JFBUCBRIXGkROAuP8X60ls9VeGMJCfZD9GeSclQOdcenevbv8aLYrnVGhk7S0dfzTT+vFuRnNzgwYMACBgd1E1NKlSzST8MMPa1GjRg3cuXNHHMIrDstArQHwg6oJ5HtZpEkt+xJpRnl7/CM5b73+25KmvIUlLFQ3LZvIpxEQEIADBw7i0qVLaNCggXihKd2cgbaVBw4cgF9++UUIxcmToYiIiBAH9egAn3xeZePGDVi7dq3S1VmzZosTwhRhZ2eHHTt+U9LohpZQVC/tMnFgAkWRQDbbIv9d1LRgyInrK21DO/5Xe36FhV4gQ8KGDRskh+cvYslAJ3Lp9Codm9+wYb0onpmpux75PxhMT89aWsntyW3L1oL8LKfn5UpH/ceNG4cHD6LF8od2hBo1aiSEheqnvn/66adaVdarV095dnd3FztJtFUtfypWrAhX17JKHr5hAkWNgJWnkf+t6O6lbbV2kfIrLPkFRdYALUOMfRhOsz/k+yhTxlUzSuc9WVWafalVq5Z0cK8BSpUqJf33ReHiFK783xPprIQTmEAxJGB0cSEG3SSBGSf9/1w2SQ7f1bFFf7s4r/NGSxtaqhgSZsyYIfla1hmSlfMwAYsiYBSfS3YiWyVRoY+lhmXLvhPby4aM79ixY4Zk4zxMwOIIFIrlYnGUeEBMgAnkmYDRHLp5bpkLMAEmYNEEWFwsenp5cEzAfARYXMzHnltmAhZNgMXFoqeXB8cEzEeAxcV87LllJmDRBFhcLHp6eXBMwHwEWFzMx55bZgIWTYDFxaKnlwfHBMxHgMXFfOy5ZSZg0QRYXCx6enlwTMB8BFhczMeeW2YCFk2AxcWip5cHxwTMR4DFxXzsuWUmYNEEWFwsenp5cEzAfARYXMzHnltmAhZNgMXFoqeXB8cEzEeAxcV87LllJmDRBFhcLHp6eXBMwHwEWFzMx55bZgIWTYDFxaKnlwfHBMxHgMXFfOy5ZSZg0QRYXCx6enlwTMB8BFhczMeeW2YCFk2AxcWip5cHxwTMR4DFxXzsuWUmYNEEWFwsenp5cEzAfARYXMzHnltmAhZNgMXFoqeXB8cEzEeAxcV87LllJmDRBFhcLHp6eXBMwHwEWFzMx55bZgIWTcAo4jJmzBhMnDjRokEV1cHVrVsXixcvQf369YtqF7lfKiVgFHH57bffEBgYWGgCY2NjDe/a7vCtVwG1qriodKpyHnadOnXQqlUr1KvnlXMGjmUCZiJga4x2IyIiEBQUhFWrVonqvvzyS2NUK+qoWdkFH49uCdfS9uL58WPgh9/OY/Puy3BzKSnFl1TaiopNQlxCivLMN0yACZiPgFHEhbpfWAIT2LqmIizUzqPkNPwTHo2GkiUzdURzOJZ8MoSMjEz8eTwCizadoqz5CtbW1ujc+UU0adIEt2/fwh9//IGbN2+KuqpXr47nnnsux3o3bdqE5ORkDBo0GJcvX8Lx48eVfM2bN0flypXx66+/wtHREX369MHff/+NihUron379ti0aTMuXPhX5K9btx66deuGixcv4vfff0NqaqpSD92UKFFCWInPPltX6tsurTTNB131dO7cGdbWNtixY7tmdgwcOAiRkXewd+9eEV+hQgV0795das8eW7duwY0bN5T8tWrVgr+/vxiPn18zBAT4i/Hu2rULmZmZSj66CQhohdatW+HBgxjR36tXr2ql84PlErDy9Kwh2QLGC9WqVRMWzLZt22AMC6atT1W4Oj+xTk5cuIvqFZzx1mAf2ErLpZzCxPl7EX47LqekXOOcnJykl+43uLq6KvkeS6bShx9+iJCQYAwdOhSTJr2vpGnedO7cCbdu3cKZM2dx4sRxYcnJ6SEhW0BcfHyawMvLCxs2bMT9+/fh7u4usixYsAArV66Q2tiCmjVrysXEizp48CCcO3dOxNFLvXnzz7C1fSKo165dQ40aNTB9+nQpbZPIl1s9VP7ZZ58VghAfHy/y+/g0xZo1a4SYvfvuu5g2bboQQKUj0s3BgwcxbtxYEUUMiMWVK1dAfZJDUlISOnXqiJiYGBG1YcMGabz1QQytrKzEdcGC+YqFK5fjq2USyPntLMBYZQumsHwwnVrUwLtDm+oUFup6zXz6ZV5+eTTKlCmDFStWSJZLY4wdO0aQePPNN8V17dq1aNiwgfJ56aXh4oU5f/68EBaRycA/ZcuWxezZs8RLvnr1KnzxxRdCWEJCQtC8eTO88sp4IS6rVq1Waly9eo0QljlzZsPXtyk+//xzISxKBulGXz1r1mTVN2TIEKXYiBEjxP23334rWSs9hLCQtda1axd06PA8aHwBAQEYP368UoZuPD098dZbb8LPz1cIhoODgxApSmvWrJkQlgMHDsDbu6FkobVDXFwciDEHdRAwurgQNhIY+qKOGBEkfiULgjKwVU0EBdZXPt2kZ/oVLIzw5ZcLxItA1/T0dLF0CQsL07Jk5HZJhL77bhkePXoEEpm8hgMH9oPEiqwHWkr4+weIX/wPPpiKxMRE7N+/H7/88jPohSXrgNqjz+HDh/HDDz8gJSUF69f/pCxj5Pb11bN161akpaVJS6tuchG0aNECUVFRoCULLckoDBo0UCyF7t69i2HDhoo+vvBCR6UM3axbt04sG2k5OH/+PKl8ODw8aog8JJ4UqM9kCVL9tDyiJRQHdRB4Yl8bcbz0ZSXTefLk94XvwIhVF2pV5G8ha6BVq9ZwcioFGxtbnUL244/rYGdnJ/kqBgpfS147pul7oHadnZ1FFadPn1GqongKJBjR0ffF/YkTJ8RV/nP06BG0bdtWPBpSDy1lDh36G23aPCeN0QnPPPOMEDASLAq1a9cGLW9iY2PFM/0hv8+DBw9QtWpVJY5u9u/fp/VMyzdPz5pSHXXw559/4vr162jQoAH27dsvrJZ9+/6HOXPmaNWtVQE/WBQBo4sLCcuXX34lrds/Bm1RF6dAlgg5X+ml2Lnzd9y5EyktjcaKl09zHLNmzQY5d6dNm4awsMuaSeJe0ydCEbJIPJXxvwjZCUrXxYsXK9ns7UtIFsNjyYI6KJy/lECipxlKly6tPBpSD2Umq5LEZejQYdIWdj2xtFu1aqWoh6wQF5ent/vJkUwWj2aQBVGOK1XKSdzGxcUKyy8wsKtYHvXr1w8tW/pLVlF3sbzS5RSX6+GrZRAwqrjIwjJ9+rRiIyz00sg7Mg0bNhTLDXop5PDyyy+LJYH83Lt3b8kX0VU4P3/+ebMcrVwzMtIl38kTJycJS6VKlZR0XTfk4CWhoJecljwUyKdBuzLR0dFiqUlxbdu2w9y5c+lWhA4dXpBvxVVfPZSJLAyyTGgJVK5cOWFdJiQkiPLkXyELxdfXV9nxon5Q386cOS3yyH969uwlcfhdPNI4fXx8hADREohY0hmc7du34+jRoyLPzz//LFlKz4qlkqZlJNfHV8siYDRxKSxhSUpJzzPxpFTDytBSoFGjxpKjcpzYDSH/Ar1In376KS5duox+/fqKpYNsEZDv4+OPp4mXn7aa+/fvr/SNdsfIVxIZeVe8nMuXr8CePbsl52hf2NvbP/WrrxT874b6Qo7j7dt3SLtJ68WW9fDhLwkHLvlJSADPnDkj+YS8QUuyv/76SxKatuIF1qxLXz1y3h07dmDw4MHiUXby0sOKFcslJ24HLF36HTZu3CjGSks/CkuXLhVX+Q85eb/5ZhFCQ0PRo0d3YfHs3LlTJDdt2hRvv/2OtGs2Uiq3RPK7lBVLpuxLLrkuvloeAaOIS2EJC+HeF3oLjeqUM5h8YnI6Tvx716D8VlbWwqciL1veeedtabfje9AvMgWyGMLDw5UdGbIaKC+JxQcffKjVxqlTpyRBuoRXX50gOTp/EssrWmLRtuzt27eFhUAFaJmjeRUP0h/aii5fvhz69u2H119/Q0STNTFx4hvC6UsRQUEjJCfuBmEVkMjQMiU4OFjqb0+p3gxRxpB6KOOSJYuFuFAdJIxyIMvlzTcnSgL7mdhupnhyWs+YMUM4meV8dN24cQN69+4jzv6QAJ88eRLEkML3338vzgq1a9ceM2fOEnHkvCY+HNRBwMrTCOdcunYNFF/uwvCx2FhboXmDSgjwrowSdja5zsrdB4+w8/B1RNx9mGs+zUQSCnkZIsfTATISkTt37shReb4WpI7KlatITtVE5bxI9sapzxUrVpJ8Q9eyJ2k966tHK3MOD7TTQztz8rkVOYt8zoUsOxJUWgaGh1/RWj7KeelK1iAtleSll2Ya31suAaOIi+Xi4ZHlREBTXC5cuJBTFo5jArBmBkwgrwRoO/vevXtsieQVnMrys+Wisgnn4TIBUxFgy8VUpLkdJqAyAiwuKptwHi4TMBUBFhdTkeZ2mIDKCLC4qGzCebhMwFQEWFxMRZrbYQIqI8DiorIJ5+EyAVMRYHExFWluhwmojACLi8omnIfLBExFgMXFVKS5HSagMgIsLiqbcB4uEzAVARYXU5HmdpiAygiwuKhswnm4TMBUBFhcTEWa22ECKiPA4qKyCefhMgFTEWBxMRVpbocJqIwAi4vKJpyHywRMRYDFxVSkuR0moDICLC4qm3AeLhMwFQEWF1OR5naYgMoIsLiobMJ5uEzAVARYXExFmtthAiojwOKisgnn4TIBUxFgcTEVaW6HCaiMAIuLyiach8sETEWAxcVUpLkdJqAyAiwuKptwHi4TMBUBW1M1VJB2bGysUd+zLErY2SAmPhlXbsUVpLp8lS1TpgzatHkOYWGXcf78+XzVwYWYgJoIFHlxqVnZBR+PbgnX0vZiXh4/Bn747Tw2774MN5eSUnxJZb6iYpMQl5CiPBvjxtraGj/9tB5eXl5KdUlJSRg8eLAQGiWSb5gAE9AikG9xeemll7Bt2zZER0drVZjTQ4sWLWBjY4ODBw/mlJxrXGDrmoqwUMZHyWn4JzwaDWu7Y+qI5nAs+WQIGRmZ+PN4BBZtOpVrnXlJ/OabRUJYdu/ejR9/XIvWrVtjxIggrFmzBgEB/nmpivMyAVURePJm5mHYVlZWqF27DlauXIWRI4NyFRgSli+//ArTpn2chxaeZD1zOQoRdx8qEScu3EX1Cs54a7APbKXlkmag5VOn5h747eBVhN82bOlElkmrVq0koWiFEydOYPfuv5Cenq5U6+vri6ioKLzxxusi7ujRo2jSpAkaNWqMSpUq4c6dO0pevmECTOAJgXyJy2NpbfLxxx9h+vRPchUYWVimT5+G33///UmrBbjr1KIGAgM8QQKnK9Ss4mKQuJA4bN26Dfb2WUsuWuqQsAwaNBAXLlwQ1U+dOgW3bt3Saio1NU08Jycna8XzAxNgAk8IWHl61pC8GPkL9KtPAuPt7f2UBaMpLL/99lv+GpBKzX29DZ6p7pqn8gs3hOLPYzf0ltm7939wc3PD7NmzsHHjRnTo8AJmzZoFEo1mzfxyLF+rVi38+msw7t+/j/bt2+WYhyOZABMAtNcVeSSSmZkpLJgzZ84IC4ZeVArGEpY8didP2Z2cnISwHD58CGvXrkVqaip27NiO4OBf4eDggLp16z1VH+0YrVv3k4h/4403nkrnCCbABJ4QKJC4UDXZBaZLl67Cx0JLoYJYLE+6WDh35GehcOLESa0GDh8+LJ7btGmjFV+yZElJeELg6OiIKVMm4+zZM1rp/MAEmIA2gQKLC1WnKTAzZsyQlkpFW1ioz7GxsXSBk1MpcZX/ODu7iNu4uKx0eqDl36+//iosnXnz5opdMjk/X5kAE8iZgFHEhaqWBWb48GFGtViSUp7s3OQ8hKdjk1L1l6FdH3JMP/dcW60KXnzxRfG8Z88eJX79+g2oWrUavv76a6xevVqJ5xsmwAR0E8jXbpGu6khgyP9izLAv9BYa1SlncJWJyek48e9dvfmpr8eOHZMct82k8yvr8Oeff0i+opbw8fFBeHg47t27J+r47rvvUK9ePWkXKQ0VKpTHhx9+qNT9yy+/4Ny5c8oz3zABJvCEQIF2i55UU3h3NtZWaN6gEgK8K4vj/7m1dPfBI+w8fF3rXExu+Wm5s2rVarHbZWtrK6yvK1fCpK3oQUhJyTrpGxoaCltbuxyr+frrhSDx4cAEmMDTBIq8uDzd5cKJ8fCogYiIG0JgCqcFrpUJqIuAUZdFxRnd9evXinP3ue9MoMgRMJpDt8iNjDvEBJiAWQmwuJgVPzfOBCyXAIuL5c4tj4wJmJUAi4tZ8XPjTMByCbC4WO7c8siYgFkJsLiYFT83zgQslwCLi+XOLY+MCZiVAIuLWfFz40zAcgmwuFju3PLImIBZCbC4mBU/N84ELJcAi4vlzi2PjAmYlQCLi1nxc+NMwHIJsLhY7tzyyJiAWQmwuJgVPzfOBCyXAIuL5c4tj4wJmJUAi4tZ8XPjTMByCbC4WO7c8siYgFkJsLiYFT83zgQslwCLi+XOLY+MCZiVAIuLWfFz40zAcgmwuFju3PLImIBZCbC4mBU/N84ELJcAi4vlzi2PjAmYlQCLi1nxc+NMwHIJsLhY7tzyyJiAWQmwuJgVPzfOBCyXAIuL5c4tj4wJmJVAkRKXRYsWoW3btmYFwo0zASZgHAI2rq5lphmnqoLXkpiYiNmz5yAs7DKuXbtW8Aqz1VDRrRTq1iiLSu5OiH2YgvSMzGw5+JEJMAFjEbDy9Kzx2FiVGaMeslxIYCZNeg979+41RpWijgn9GqNjMw9YWWVVeSsqAR9/dwhRsUmoWdlZis9KIMG5HhmPx0WKitEwcEVMwGQEipTlQqMmi4UsF2NaMOXLOuLNgU0UAaF2Tl68hwNnbuOdwU0xumdDdGpRQ3xe9PdEu6bVcCkiBtFxyZQ1z6FHj55wd3eDtbUNgoKC4O3dCOfOnUN6ejratGmDYcOGoXLlKggPD0daWhp8fHzQoUMH/PPPP5KoPVG19u3bw8/PT5T19/cX9xEREejVq5fIf/HiRSQn56+PeR4UF2ACeSRQ5CwXuf/GtGBIXAK8K8tVIyExDX+fvY0pI5qhYS13JV7z5si5SHy+6ohmlMH3oaGhePQoEc7OTyyihIQEnDp1Cq1atVLqiYmJkUTiebzyygSMGjUKH330IX799VeRbm1tjRMnTiI6OlrkCQ4OgYeHB2jpSPXKYdOmjfjkk0/kR74ygSJDoEg5dDWp0JKIlkZkwZDQGDOUdrTDrAmtdAoLtVWzikuBmnRxccHXXy9EkyaNsX37djg5OYGsj3HjxqFpUx9JaELh6uoqxGb58mXCYunXr7/SZteuXWFra4tffvlZiaPn69evo3XrVhg7dgySkpIQGNhNSecbJlCUCBRZcSFIJDC7d/+FDz74APb29vnmVrW8E4IC6yufEdK9R8Unv/75rjiXgmRxLFu2TCyFZs2aKXKS5XLw4AGkpqaKNIqsX78ByKqhpWD9+vWlpVTWlAwYMFAIzurVq0VZ+c+YMaMRGxuLv//+GwcOHICDg4MoJ6fzlQkUFQJFWlzGjBmj/NqnpKQUFWYG9ePBg2glH4kHhdjYGCXu4cOH4t7aOsuR/MMPPwhh6datu7iS0Fy4cEEsg+RC6elpQojkZ/LjUChbtqwcxVcmUGQIFFlxIWEZMmSI8EWEhYUVGWCF1ZGQkBDJyklD//790aVLF7EkWr16lVZzGr5erXh+YAJFkUCRFJfiJiy0lCF/SEFCZmYmDh8+Ai8vLwwaNFgsnXbs2FGQKrksEzArgSInLqNHjza6xZKckpFnyMkp6QaVIWE5dOgwjh49ViC/EDW2ZMliIVLe3t7Cn2JQBzgTEyiiBIqUuJCwDB061OhLoX+vPcC9mMQ8TcG+0JsG55cP4GkW0DyvIsdnaJwITk/PEjzNuNOnTyM+Pl5kX7z4W7mYuJJlw4EJFCcCReqcy8SJE7Ft2zZp58T4PpYK0lkXOihXrULpXOeHXvaj5yOx/9QtpKUb9kLLOzwsALmi5USVEShS4qIy9jxcJmDRBIrUssiiSfPgmIDKCLC4qGzCebhMwFQEWFxMRZrbYQIqI8DiorIJ5+EyAVMRYHExFWluhwmojACLi8omnIfLBExFgMXFVKS5HSagMgIsLiqbcB4uEzAVARYXU5HmdpiAygiwuKhswnm4TMBUBFhcTEWa22ECKiPA4qKyCefhMgFTEWBxMRVpbocJqIwAi4vKJpyHywRMRYDFxVSkuR0moDICLC4qm3AeLhMwFQEWF1OR5naYgMoIsLiobMJ5uEzAVARYXExFmtthAiojwOKisgnn4TIBUxFgcTEVaW6HCaiMAIuLyiach8sETEWAxcVUpLkdJqAyAiwuKptwHi4TMBUBFhdTkeZ2mIDKCLC4qGzCebhMwFQEWFxMRZrbYQIqI1CkxGXRokVo27atyqaAh8sELJOAjatrmWlFZWiJiYmYPXsOwsIu49q1a0bvVkW3UqhboywquTsh9mEK0jMyjd4GV8gEmEAWAStPzxqPixIMslxIYCZNeg979+41Wtcm9GuMjs08YGWVVeWtqAR8/N0hRMUmoWZlZyk+K4EE53pkPB4XKSpGw8AVMQGTEbA1WUsGNkSCQsJiTIEpX9ZREpbqirBQVy5HxCI+MRWThvnC37uyVu8iox9h3roTuHg9RiueH5gAEzCcQJFaFsndpiURLY2MtUQq5WCHB/HJOHUpSnwOnLqN4P+F4YOg5vCtV0FuVrk6OZaAi5M99p+6pcTl5aZHj55wd3eDvX1JBAUFwdW1LB48eIC+ffuKa3x8vFJd9+49pLzuiIiIQK1atRAYGCiWhG3atEH//v1x584dxMSwyCnA+KbYEChyyyJNcsZaIpHlEqBhndACqJ1vNXhUdNZsTuuelkujPtulFWfoQ2hoKBITk1C6dGmx3KLn1atX4auvFmLu3C+wZs0apSpKCw8PR58+fSSL7X0MHToUN2/eRNWqVZU8ly9fQu/evZVnvmECxYFAkVsWaUKjJdLu3X/hgw8+wKFDh5CSkqKZbPB91fJOCAqsb3B+Y2R0dnZGcHAwvvnma8TGxiIgIMDgaqls9+7dkJn5WCr/DerUeQbVq1fHjRs3DK6DMzIBcxMoUlvR2WGMGTMG/v7+GDduXL6FJXudpnqmpcyHH36Au3fv5rnvCxd+hatXr+L69WtYtOgb0eXBgwebquvcDhMwCoEiKy4kLEOGDMGoUaMk/0uYUQZrykru34/Kd3OnT59Ryh47dkzckzXDgQkUJwJFUlyKu7Dk9gWwtbXLlvzf3rhWLO+Da+Hgh2JJoMiJy+jRo41usSSnZOR5cpJT0g0uY21tDVvb3N1XtDyi0Lx5M6VeD48aesspmfmGCRQzArm/ESYeDAkL7ZYYeyn077UHuBeTiPKujgaPaF/oTYPykrAcOnQYdnZ2aNmyhU7/yrlz5yQHbSb8/Jrhs88+F1vto0ePMagNzsQEiiOBIiUupUqVMrqw0KQ8lo7bTl18EJ1a1EC1CqVznacM6YTu0fOReTrjIp/u1ayY2swepk+fJjl5P0KPHj1EEm1DN2zYQMlG4kMhPT3vlpZSCd8wgSJCoEifcykijPR2g6wXCrI46CtAy6GYmAfQPEynrwynM4HiRoDFpbjNGPeXCRQTAkXOoVtMuHE3mQAT0EOAxUUPIE5mAkwgfwRYXPLHjUsxASaghwCLix5AnMwEmED+CLC45I8bl2ICTEAPARYXPYA4mQkwgfwRYHHJHzcuxQSYgB4CLC56AHEyE2AC+SPA4pI/blyKCTABPQRYXPQA4mQmwATyR4DFJX/cuBQTYAJ6CLC46AHEyUyACeSPAItL/rhxKSbABPQQYHHRA4iTmQATyB8BFpf8ceNSTIAJ6CHA4qIHECczASaQPwIsLvnjxqWYABPQQ4DFRQ8gTmYCTCB/BFhc8seNSzEBJqCHAIuLHkCczASYQP4IsLjkjxuXYgJMQA8BFhc9gDiZCTCB/BFgcckfNy7FBJiAHgIsLnoAcTITYAL5I8Dikj9uXIoJMAE9BFhc9ADiZCbABPJHgMUlf9y4FBNgAnoIsLjoAcTJTIAJ5I+Abf6KFc9SFd1KoWp5Jzx+DJy/Go2klPTiORDuNRMoBgRUIy4T+jVGx2YesLLKmpVbUQn4+LtDiIpNQs3KzlJ8VkJ6RiauR8YLASoG88ddZAJFloBZxcXBwQHDhg3HihXLkZGRoRfSwIGDsG/f/3D79m29eTUzlC/rKAlLdUVYKO1yRCziE1MxaZgv/L0ra2ZHZPQjzFt3Ahevx2jF8wMTYAKGE7BxdS0zzfDsxs1ZqlQpTJw4Ec2a+eGvv/6SrAVpvaIjjB49GqNGjcSOHTsQE5O3l76Ugx0exCfj1KUo8Tlw6jaC/xeGD4Kaw7dehadadHIsARcne+w/deupNF0RzZo1w4ABA6WxNENqaioiIyOVrD169IS7uxsSEhIwcuRIBAQE4MaNCDx8+FDJ4+/vDz8/P1y8eBEkot26dZPS43H37l0lD98wgeJEwMrTs4buN9oEI3FxccGyZcull+06Jk2alKMFQ8IydOhQSVxGISwsLM+9IsslQMM6oQVQO99q8KjorLMuWi6N+myXznTNhJUrVwlh0Izbtm0rJk+eLKJCQ0MRHx8PZ2cX2No+MRbXrVuHmTNniDzBwSHw8PCQ8sWhbFk3paorV66gZ88eyjPfMIHiQsDsu0VxcXEYPfplVK/ugdmzZ8PGxkaLXUGFhSojJ25QYH3lM0K6z01YtDqg58HLywtNmzbFqVOhkkXiL4SALKvAwG4oUaKEUpoE49y5f9C+fTv069cXNO7BgwejefPmSh4SHmtrG5FO+U6fPoVatWpJIjVFycM3TKC4EDC7uBAoXQJjDGEp7Ik4f/48GjXylnxHw4R1QpbGli0hollvb2+l+bS0NAwfPhxRUVG4cOECxo8fL9ICAwOVPHQzduwYkU75KH96ehratGmjlYcfmEBxIPDERjdzb2WBoSUSWTCXL4dJv+yD8r0UMuVwgoKCpL4OgZubm7C8rK2zNFvTCiPfSWZmptKts2fPCB8TWT5yoHQSKznQc1TUfVSo8LRfSM7DVyZQVAkUCctFhiMLDC2RiouwkC/orbfehqOjI3bu3InFixdrCYQ8Nnt7e/lWXGkJRNvfiYmJSjyJkixMcqS9fQnJeuHzODIPvhYfAkXGcpGRyQJTtmxZXL16VY4u0DU5Rf82d/YGkg08YNe+/fOiaP/+/XDrVtbuEu0YZQ/u7u6oXLmKtI2eladPnz4iy+nTp7Wy9u7dB5s3bxJxVapUgatrWcmJfVkrDz8wgeJAoMiJC0EjgaGPscK/1x7gXkwiyrs6GlzlvtCbBuUlHwttIc+fP1/ytWxBixYtn9o5oorIStm0aRPWr18vCUYZ9OnTV/hT1q37SaudqVOnwsurnrTdHittSQ8U5VatWqWVhx+YQHEgUCTFxdjg6PzM1MUH0alFDVSrUDrX6jOkE7pHz0cafMZlwYL54myLl1d9SRTqgxy3Bw4cQKtWrbTauXbtmljyjBkzRsTTmZcpU6YolgxFUtm9e/dKu0X9RR56Xr16FbZu3Sqe+Q8TKE4EzH7OpTjByq2vTk5OKFeuXI5LOTrnQku83r17S1aLK0qWLIk7d+5oVUfnXKpXrw4fnyYg/0zVqlVBVhEHJlBcCajCcjHF5JAlQh99wZDTxSkpKSws+kByepEnwOJigikKDw/HpUuXcm3p/Plz0lZ13h3PuVbKiUzAjAR4WWRG+Nw0E7BkAkXqnIslg+axMQG1EWBxUduM83iZgIkIsLiYCDQ3wwTURoDFRW0zzuNlAiYiwOJiItDcDBNQGwEWF7XNOI+XCZiIAIuLiUBzM0xAbQRYXNQ24zxeJmAiAiwuJgLNzTABtRFgcVHbjPN4mYCJCLC4mAg0N8ME1EaAxUVtM87jZQImIsDiYiLQ3AwTUBsBFhe1zTiPlwmYiACLi4lAczNMQG0EWFzUNuM8XiZgIgIsLiYCzc0wAbURYHFR24zzeJmAiQiwuJgINDfDBNRGgMVFbTPO42UCJiLA4mIi0NwME1AbARYXtc04j5cJmIgAi4uJQHMzTEBtBFhc1DbjPF4mYCICLC4mAs3NMAG1EbA4cfHz88OSJUvFP/ZeWJNZu1oZ+NarAO/a7rCyKqxWuF4mULwJWNw/51qyZEl8880iMSuvvjoBycnJRpuhErbWmPN6G9Ss7KLUeex8JGasOQZ7O2tUdndS4hOS0hAZ/Uh55hsmoDYCFicuNIGFJTDtfath4kAf5Tvy+PFjfBd8FkfORWL66JaoVqG0kkY3569G47OVR0BCw4EJqI2AjatrmWmWNuj09HTs2rULXbp0FR+6p7iCBkd7O0Tce4hTl6LEJ2T/FVy7E4/Pxwegklupp6ov5+qImIcpuHgj5qk0XRF169bDiBEj8Oyzz+L+/fuIj4/Xyuro6Ihu3bqhe/ceSEpKxJ07d5R0Shs4cCAePXqEOnXqYPjwl1C+fDn8+++/sLa2xoABA9GzZ09JfB1w5coVpVyPHj3h7u4m5bFBUFAQvL0b4dy5c4JZmzZtMGzYMFSuXAXh4eFIS9MWSi8vL6md4ahRwxM3blxHSkrKU/VmZmZi6NChYkzUF3rWDJ6enujfvz86duwofhiuXbsGEm4K/v7+oKXuxYsXpbENEmN/+DAed+/eVaqoVasWAgMDRf8CAlpJbQ0BsaD+yvUomfnGZAQs0nKR6Rnbgqnv6YZnPFzl6lHCzgY92tSCk4OdEpf9ZvfxCHy5/mT26Kee6eUPDg6Gp2dNrbSvv/4a3323VMS98MILmDdvvuTneeLoiY6ORufOncTyj170DRs2IjIyEhUrVlTqOXPmDCpVqoRy5copcQcPHsS4cWPFc2hoqCRIiXB2dlbqTkhIwKlTp9CqVSulTExMDDp0eB6pqalCrEJCtkiiUkNJp5vZs2dh7dq1Io7qTUh4JOql8VEgkX/vvXfxxx9/iOfx48fjlVcmiHv5z82bEUJEKG9wcAg8PDwkkY1D2bJuchYhjj179hDPkya9L8SLBJOERg5JSUno1KkjqN8cTE/A4hy6mgjJ30J+FwrkhyGxKUjw9aqAoMD6ymdIp7q5Ckte2po7d54Qlj179qB161aSBTFCWCCvvvoqypQpI4SB8pDlMGrUSDRv3gzr1v0INzc3rFixUqspd3d3Ub5lyxa4efOmZIl4o0SJEtKL1glt2rQW1hBZBPILT4VdXFzw9dcL0aRJY2zfvh1OTk7Cahg3bhyaNvWRhCYUrq6uitgsWLBACAtZhQEB/pJVMUASkgRJOCaBRE4O1HcSGz8/X3z66SewtbWV+jZSThb39PK/+GJn0bcTJ06gatVqkhXTSclDZciq6tevL9q3b4fTp08JEZk8eYqSh27IAnrrrTdFW6tWrYKDgwPWrFmjlYcfTEfAosWFMJLAfPbZp/D19ZWWBL1MRzaPLTVv3ly89K+//hpiY2Nx/PhxISIkII6OpSSL4QUhBl988QWOHj2KxMREzJw5U4iHl1c9rdb27dsnytPLvmHDepG2YsVy3L59S/yK79v3P2GhVKtWXSlHFtCyZcuEZTFr1kwRT5bLwYMHhKVCaRTq128grr6+fqK/b7/9lrjSMurNNyeKert2DRR56A8t6774Yo6Yh40bN4qlXr16dZX0Zs38hKiQCJLIyG3TfGmGsWPH4MKFC4iKihLLsPT0NKlcG80sktiuExYRzfn8+fNw9Wq4ZPXU0MrDD6YjYGu6pszTEi0PFi9eLL1kG7B+/U/m6YSeVsmCoCUJLV80A72w9KFAfgcKe/bsFlf5z8WLF6Rf+qqoUKGCHIWIiBvKPS0NKNy9e0+JI58MBWvrJ8urBw+ilXQSJQqxsU+WEw8fPhRxVEZXf0n0KDRu3Fhc6Y+mb4SeaclD1pYcSFSnTJmKKlWqwM7OTtRNaTY2T373yEdz/vx5uYjw2URF3dcaMyXu379PyUM3xI6WmbVr10FY2GWtNH4ofAIWLS4kLGQe79u3X/qVn1H4NPPZAr089KGliK6QkJD1ctPSRPOFLVUqy5FMgqH50uqqxxjxcn8dHLSXmfKy89GjLHHKaivLMZtTu+QHWrZsubCWjhw5IgSEBIacypqBxIw+1K4c7O1LiHLyM11JoDVDqVJZPOPiYjWj+d5EBJ78PJioQVM1UxjCkpyS9x2n5FTDytDOUPXq1YRfQ2Y0YMAAkNOUfnn//vtvEd2vXz85WfgvGjRoKO0aJQl/h5JgghtaRtEOkaYgUn8pHDt2zKAe0FKPnNPLly/D+PHjhM+Hlj05hd69+yjRZOW4upYVVpASKd1oLntJjHx8fISPSledmmX53vgELNJyKQxhIfT7Tt3C4E71pBfC8InYF3rLoMwrV67A++9PFjtGP/64Ttr6rYxevXqJX+fw8CtiqRMXFydt2Q4A/SJfuRImXiZ6uckvY+rw/fdr8Pbb72Dr1m1iyVmpUkXRH9qK3rx5s0HdOXPmtMhHW8y07KLlHd3nFKZOnSo5iutJfplYsd1OokRWqWYICAgQjnvaperRo7twUu/cuVMzC9+bkIDFiUthCQvNyZ37jzDpm/3o0Kw6XJzsc52mR9LBuT0nIsRBulwz/pf4448/SjtC5cWW6muvvSZiyRk6ZsxosRygl7ZPn9744Ye10tmdLuIXn3aOtm3bJhy7VCAzM2sJIl//q/qpS0ZG1vIiIyNDScvpPIicjzKlp2flleNWr14t+kvWyoQJWTtyZM1QfzW3fnOqV2709OnTov9du3YVu0yUNyQkWMsCobw0zr1790q7Rf1FUXpevXqVJGxb5arEdePGDSAL57nnnhPMTp48iXfeeVsrDz+YjoDFnXOhJUSXLi9i4cKFpqNo5JbIF0G/5LJjNXv1tK1cvnx5sVOUPc0cz9RfEhTapclPoCVM7dq1QYfn6AyNZqBzLtWrV5eWOE1gb28vrBvNA4CUVz7nQlvVly5dQs2ataQDdFe0fDSadfK9aQhYnOVCuwILFxbvnQHNU7c5fQ3oBaSt26IS9PVXXz/JUUuioC+Q9ZZdWLKXobp4Zyg7FfM8W5y4mAcjt1pYBM6fPydZIE+Wbzm1Q4Jz7949nZZeTmU4rvAJWNyyqPCRcQtMgAkYQsBit6INGTznYQJMoPAIsLgUHluumQmomgCLi6qnnwfPBAqPAItL4bHlmpmAqgmwuKh6+nnwTKDwCLC4FB5brpkJqJoAi4uqp58HzwQKjwCLS+Gx5ZqZgKoJsLioevp58Eyg8AiwuBQeW66ZCaiaAIuLqqefB88ECo8Ai0vhseWamYCqCbC4qHr6efBMoPAIsLgUHluumQmomgCLi6qnnwfPBAqPAItL4bHlmpmAqgmwuKh6+nnwTKDwCLC4FB5brpkJqJoAi4uqp58HzwQKjwCLS+Gx5ZqZgKoJsLioevp58Eyg8AiwuBQeW66ZCaiaAIuLqqefB88ECo8Ai0vhseWamYCqCbC4qHr6efBMoPAIWJy4+Pn5YcmSpShZsmThUeOamQAT0EvA4sTl7NmzsLW1xTffLCo0galdrQx861WAd213WFnpZcwZmIAqCVjkvxVNVguJC4VXX52A5ORko0xuCVtrzHm9DWpWdlHqO3Y+EjPWHIO9nTUquzsp8QlJaYiMfqQ88w0TUBsBixQXmsTCEJj2vtUwcaCP8h15/Pgxvgs+iyPnIjF9dEtUq1BaSaOb81ej8dnKIyCh4cAE1EbAYsWFJtLYAlPf0w3PeLgq35HrkfG4H5uEaZKwuLs4KPGaN8tD/sGW/Vc0o3K99/Lywosvvojbt+9g+/ZtiI+PV/L7+/ujYsWK2L17N3r27Al3d3ds3LgRN27cQO3addCrVy88fPgQW7ZskcrfUsrxDRMwBwGLFhcCakyByS4uJexs0KNNLTg52Omcu93HI/Dl+pM60+UEa2trhIRsQY0aNeQocZ09exbWrl0r7oODQ+Dh4YGUlBSUKlVKxJH1tGnTRvTvP0Apl56ejkGDBuLChQtKHN8wAVMTsDiHbnaA5G/57LNP4evrK/3a98qenKdnX68KCAqsr3yGdKqbq7DkpfIFCxYIYdm1axcCAvwxcOAAJCQk4L33JoGsGTmQs5qc1n5+vpg8+X3JoWwlhGXp0qVo1MgbX3/9tXBojxw5Si7CVyZgFgIWLy60jFi8eDE2bNiA9et/MgtkQxr19fUTS6C3335LXM+dO4c335woxKNr10CtKiZMeEU4qbdt24ZHjx4hMTFRcmB/jczMTHz33VKQNZPdAtKqgB+YgAkIWLS4kLCsWrUK+/btx8yZM0yAM39N0JLI2dkZ165d06rg6NGj4rlx48ZKfFpaGlJTU5XnjIwMJCUlKc90Q3EcmIC5CVisuBQXYaEvAFkc9HFw0D74R/4iCo8eJYgr/2ECxYmARYpLYQlLckp6nuc2OdWwMtHR0dJSxhNOTk/OygwYkOWkPXbsWJ7b5QJMwNwELE5cCktYaKL2nbol+TPyNmX7Qg3bEv7++zWws7PD1q3bMG7ceEyfPh0TJ74pdoY2b96ct0Y5NxMoAgRsi0AfjNoFJ6fS+O2337Bw4UKj1kuV3bn/CJO+2Y8OzarDxck+1/ofSQfn9pyIEAfpcs34X+Lq1atRrlx5kLUyYcIEEUvWzJgxoxETEyOeaemUUyAHbvaQU1z2PPzMBAqTgMWfcylMeIVVd6VKlYSgGOs/WyisfnK9TCA3AhZnueQ22OKSdufOneLSVe4nE9BJwOJ8LjpHyglMgAmYlACLi0lxc2NMQD0EWFzUM9c8UiZgUgIsLibFzY0xAfUQYHFRz1zzSJmASQmwuJgUNzfGBNRDgMVFPXPNI2UCJiXA4mJS3NwYE1APARYX9cw1j5QJmJQAi4tJcXNjTEA9BFhc1DPXPFImYFICLC4mxc2NMQH1EGBxUc9c80iZgEkJsLiYFDc3xgTUQ4DFRT1zzSNlAiYlwOJiUtzcGBNQDwEWF/XMNY+UCZiUAIuLSXFzY0xAPQRYXNQz1zxSJmBSAiwuJsXNjTEB9RBgcVHPXPNImYBJCbC4mBQ3N8YE1EOAxUU9c80jZQImJcDiYlLc3BgTUA8BFhf1zDWPlAmYlACLi0lxc2NMQD0EWFzUM9c8UiZgUgIsLibFzY0xAfUQYHHJx1zXrlYGvvUqwLu2O6ys8lGBBRdxdnbG5MmT0bx5cwseJQ/NEAK2hmTiPFkESthaY87rbVCzsouC5Nj5SMxYcwz2dtao7O6kxCckpSEy+pHyrJabihUrYvDgIXB0LIUjR46oZdg8zhwI2Li6lpmWQ3yximrfvj3KlCmDyMhIvf2mL3+PHj1w9uxZvXmzZ3jOpypebOmpRD9+/BjbDl5FdFwyZoxvhf4dnkGnFjXEp1vrmmhUpxwO/3MHqemZSpncbsqVK4c+ffqgW7fucHFxRlhYGKgNCjTGevW8cPnyZaUKD48a6N69m8iXlpYmjasn3N3dkJCQgJEjRyIgIAA3bkTg4cOHShl/f3/4+fnh4sWLGDhwkNRWNyk9Hnfv3lXyyDcVKlSQhGIwWrb0l9IjERcXJyehVq1aCAwMREREBDp16izlG4T79++ja9euaNy4MTIzM+HgUBK3bt1CUlKSUo5v1EPAytOzRta3txiPuVevXnjvvUl45ZXxCA0N1TkSEpZVq1Zh3779mDlzhs58uhLqe7rhGQ9XJfl6ZDzuxyZh2uiWcHdxUOI1b5aH/IMt+69oRuV437ZtWyxY8CVsbW2FoFhJ663o6Gjpxe2IlJQU/PnnX3ByckKLFk+WG7T8ICuBxh8WdlmMPT4+Hs7OLqIeuaF169Yp4w0ODoGHhwfi4+NQtqybnAVXrlxBz549lOdp06YLoVMipJuDBw9i3LixImrSpPcxdOhQISju7u4ibsOG9RgwYKBmEbz++uvYs2e3Vhw/qIOARfhcfv31V3zxxRx8++1iNGnSJMeZK6iw5FRpnWqumDWhtU5hoTI1qzxZQuVUhxz37rvvwdraWlgi3t4NsXr1Kri6ugrLQc5jyJUE49y5fyRLpx369esrrA2yPjR9ICRg1tY2Ip3ynT59SlgikydPEU10795DCMvNmzclS6QLOnR4HufPnxeW0Pjx47W64eDgIASnZcsW+Oyzz6RyvUV6cHAwGjZswMKiRUtdDxYhLjRlv/zyi06BMZaw+HpVQFBgfeUzpFNdODnYGeUbQy8phWeffVZc582bh0aNvIWlJSIM/EPLo+HDhyMqKgoXLlyALAa0hNEMY8eOEemUj/Knp6ehTZs2IgstlSgMGjRQWlbdEEumYcOGiqXOCy90FGnyn9mzZwmLhpZiHJiAJgGLERcaVE4CYyxh0YRWGPcLFsyXdp6sJIGcK5Y3NJbOnTvnuSnynZC/Qw5nz54RyywvLy85SqSTJSIHyh8VdR/kY6FQu3Zt4SeJjY2VsyA1NRUPHjxA1apVlTi6+ffff7We+YEJyAQsSlxoUJoCQy9nQXwsMiRTXLdu3Qp//5ZYtGgRLl26JL3gdYTQ9O3bT2melk2agZY32YO9vb1WFOUh0UpMTFTiqZ7sddnbl5Csl3SRJzk5WctnIxcsUaIEyDLiwAQMIaD9bTWkRDHIIwvMnDlf5Nt5a8ph0oveu3dv1KlTB0uWLJacogPEM/WBfB4UHj16JO2+OEjOWmfxTH8aNGig3Ms35FytXLmK/Kg4ZU+fPq3E0U3v3n2U5ypVqkj+nbK4eTNCxJFVY2dnB19fXyWPp6cnSpcujatXw5W4nG4yM7P2B0qXfrItn1M+jrN8Ak//9FnImElgwsPDcerUKaONKDkl65c9LxUmp+ovQ8sS2u1ydHTEypUrcebMaWknZpho5tChw+JKTteaNWvip5/WY+PGDcJx7eVV/6mukJWyadMmrF+/XhKMMpK49BX+lHXrftLKO3XqVHh51UNMTKy0JT1QWDdk5VFYsWK55MTtgKVLv5Pa2ih2qygPhaVLl4qrrj/h4VeEBdSqVWu88cYbWLNmDTSXV7rKcbzlEbBYcaGpMqawUH37Tt3C4E718nQqd1/oLSqqN7z++mtiK3rUqFEiL51v2bVrF5YvXyaeaSfGx6ep2EZ+5513xfKEBKdRo8ZadV+7dk0secaMGSPiydE6ZcoU3L79pB+0tNm7d6+0W9Rf5KFn2p2ipRkFslzefHMiPv30M7HdTHFkOc2YMQP79++nR8Wvk56eIZ7lPySUW7dukba1e+Hll0eL80S7d/NWtMxHTVeLOOdiygmr61EWHZpVh4uTtm8jex8eSSd095yIwOnLUdmTcn2msyxubu64fv1ajvkonQ7bXb9+XXnB5Yx0xufq1atiSUXb2CVLlsSdO3fkZHGlcy7Vq1eXhKoJyD9DDlo646Ir0OFEsoZiYmJ0Zckxnnw9ZInRuRsO6iRg0ZZLYUzphesPQJ/CCmRp5Latqy9d7pchYkCH83ITFqorv0sacg6zsMizoc4ri4sFzTv5mGinKbdw/vw5yeLRXsrklp/TmEB+CfCyKL/kuBwTYAK5ErDIrehcR8yJTIAJmIQAi4tJMHMjTEB9BFhc1DfnPGImYBICLC4mwcyNMAH1EWBxUd+c84iZgEkIsLiYBDM3wgTUR4DFRX1zziNmAiYhwAjFxAIAADIZSURBVOJiEszcCBNQHwEWF/XNOY+YCZiEAIuLSTBzI0xAfQRYXNQ35zxiJmASAiwuJsHMjTAB9RFgcVHfnPOImYBJCLC4mAQzN8IE1EeAxUV9c84jZgImIcDiYhLM3AgTUB8BFhf1zTmPmAmYhACLi0kwcyNMQH0EWFzUN+c8YiZgEgIsLibBzI0wAfURYHFR35zziJmASQiwuJgEMzfCBNRHgMVFfXPOI2YCJiHA4mISzNwIE1AfARYX9c05j5gJmIQAi4sOzIsWLULbtm11pHI0E2AC+giwuOggtGnTJsyePafQBKaUgx2a1q0A33oVUN7VUUcvim50QEAr/PTTelSvXr3odpJ7ZlYCNq6uZaaZtQdFtPFr164hLOyyEBi60rOxQodm1fHZuAA871cdz/lUxQvNPXDlZhwiox+hanknITZlnUuCPglJacjIfGyspo1Wz5QpU+Dr64vY2FgcP37caPWqoaJu3bqhS5euOHz4sEUPl/8hej3TS0sjsmAmTXoPe/fu1ZNbf7KVFbD0/Q6o6FZKyXz1dhymLTuEtk2rYUTX+qA8ciBxWbP9PHYeviZHFYmrs7MzOnbshODgX5Genl4k+lRcOvHLL7+gdu068PZuWFy6nK9+suWiB5uxLRhrayvY2Fjj1KUo8Qm9eA/LQ/5B3/bPYFDHZ7WEhbpWws4Gz1Z3xdb94ch8bJgFY21tjeeeew6DBg0SL/7NmzeVUdaqVQuBgYHCEmvTpg369++PO3fuICYmRskj39DSZ/jw4ShbtiwuXryAoUOHSn23QWRkJCpUqCC9ILURHh6OlJQU+Pv7w8/PDxEREejVqxc6dOgglbmI5ORkuTpxza1vWhl1PFCfhgwZDC+v+njw4IGwnCirm5sb+vbtK+Li4+OV0t2794C7u7volzx26jPVM3ToEDg6OooxPP6PLT0PHDgQjx49EmMMChoJKhcefgWpqalKvXRDY2ndujUGD86q5/r168jMzBR5NOvx8vLCiBEjcO9elDQvbcXcUHpCQoLo29WrV7XqtZQHtlwMnEljWTAkLj3a1NJqtX5NNzTzqqgVl/1h9Iw/cPdBYvbop57Lly+Pbdu2w8HBQUmjpcsLL3QQL/qkSe8LkSDBqVq1qpLn8uVL6N27t3guWbIk/vjjT5QpU0ZJpxfA09MTBw8exLhxY/Haa69jzJgxeOml4Th58qRkwYTAw8MDiYmJIKtGDps2bcQnn3wiHvX1TS6j67phwwYhKiQEVpJ5R9cFC+Zj1apVaN++Pb76aiHmzv0Ca9asUaoIDQ0V4tGnTx/J+swa+5UrV4RgyJmSkpLQqVNHIbAkBBs2bMSNGze0/EnU1vjx46XxHxDFKlWqhK1bt8He3l6uRgj5oEEDceHCBamfWfXcv39fCAhlWrBgAV599VXY2dkpZW7fvi3aViIs6IYdugZOJi2Jdu/+Cx988IHWF8rA4ko2W0lcggLra330CYtS2ICbdet+AonDtGnTJJ9IUyxe/K0QieXLV2iVJgHo3r2bYsXUqfOM8jItWbJUlAkJCUHLli0k62UYKlbMXfyocltbW9Cvd+vWrTB27BjQSxsY2E1p19C+KQU0bpo1ayaE5cCBA2I50b59O8TFxeHll0dr5DLslkTyrbfelCwtXyFMJMSagkS1kKOaRIvyUF4Sl2+++VqMkdLJmU3CMnv2LDRt6iMJ1yRh1X3//Q+UrASy+ihPQIA/Vq9eBR+fJiAhp/oaNmxgscJCAFhclK9B7jf0K02m/7hx48QyIPfc5kl1cnISpvy+ffvw88+bRT+//fZbsQSqV6+eVqcWLvwKZI1cv34NixZ9I9IGDx4srvSr++BBtCSkU4XpTr/+9PIYEsaMGS2WKn///TdICOjFrV+/PgzpG+UhEdH8NGnSRDRLLykFsqZcXV0RFRUlRIxe2ryGdevWSZbZH8KSmz9/nsQhXLK6amhVQ9YNpdGyjvKuX79eEhY70TfqJy3DDh8+hLVr14rl0o4d24X/icZbt+4T1gcO7Bd5aKkmL5m0GrLgB1sLHpvRhkbCMmTIEIwaNUraQQozWr3GrqhVq1aiSvK3nD59RqmefAMUNJcrmunHjh1T0ikvvSDkY9EM8nJAMy77fXp6mhAjOf7cuXPScuwF4bOpVq2aiM6tb5Q2Y8ZMubhybSj9wv/555/CKmrQoAH27dsvrJZ9+/6HOXPmKH4XpYCem/3792nloH56etYUTlY54ezZJ/wojsZP4tuiRUuF44kTJ+Xs4kq7P7169Qb5skhUKFiqP0UMTs8fFhc9gIqLsNAwZEcmLU22bdumjKx06dJ4+PBhNodkzs5h+nVNS0uTLCDtZRBZH/qCZOnrDIb0jawdWnbmFGhHKjCwq7Ac+vXrJy3X/NGtW3dpuREgHKRyGbIutIPG1tt/CZoiS1GlSjmJlLi4WJQrV07cOzo+2c2jCBcXl//yxCli5uSkncfZWc4TK/Kq/Q+LSy7fgNGjRxvdYqEzK6npmShha/iKlF7a5NSMXHqalXT06FFxQ6b8kiWLlfwtWrRAlSpVn9q5UTJku6Edn5o1a0q7TYMl38I6saMyd+68bLny9mhI36jfISHBOVbcsGFD1KlTB9u3b4dc188//4xnnnlWLJXu3r0ryjVv3gwrViwX97TUIT9Q9tCzZy/8/vvvIposNR8fHyGotNSSxYWWZpQmL2XobAoFsmAuXcrymdDOz9y5c0U8/XnxxRfF/Z49exQnrpKocUP+FnJIU98seRv/afIaENR8S8JCW6/GXgqRuPx9+pY402Io3zNhUYhLSNGbnb6ox48fkxy5fiDH4q5dO8WuBTlV7927J/wweiuRMtCuCFk+dFDuvffeFb4G2potSCho35o2bYq3334HQUEjsXTpEsnvUlYsZchpTLth9CEh8PNrhs8++1wcgBw9ekyOXSZr55tvFoF8ST16dBdWyc6dO7Xykm8nODhYErstIL8PWUokPrQTRIGWkiRAP/64Tlqy/SGWSyRStM1NrGn7W1egJSmJ4tKl3+GHH74HbRZYYmBx0TGrpUqVMrqwyE0t+fUsLkXEwru2u/gFk+Nzul68/gB/HL2RU1KOcSSGtPPRqFEj8VJQpps3I6Qt45dEfvmXOD1dtyV0+/YtdO7cSToDM0Ccwr1yJUx6Gb8Rvg65Ufr1pZCRkVWPXK+cntNVX99yKiPHff/992I87dq1x8yZs0Q0LbVefXWCnAXTp0/Dhx9+JAlGDxFH4kH+muxh48YN0rZ7H7Gcon7TVvo777ytlW3//v3Copk4caKIp7M9gwcPUvKMHv2ytJu0Wtq58hYfqod2gehsEYVM6UdE8yoe/vtDllWnTp2EONH2vaWKC59z0Zx1C7unw1+3bt0yeDkkD/816QxL48aNhdUSHR0tot944w2x7btkyRJld0nOn59rfvtGbdFWMlkRdAgtp0DLoZiYB4oPSs4jn3Pp16+vWNrUrJl1OE5TGOXzKWvWrBZLHjoLRFaRrraobmovIuKGsoSS29N3pV0n8m/RIURLDGy5WOKs/jcm2k7NT4iNjRG/qrt2/SFO2dJpXDoARy8C/eobI+S3b9S2vh2Y69L2ur5AgkL/zZi+cFM6bKgvGNJeTnXkJlg55S9ucYZ7FYvbyLi/+Sbwww8/4OOPP5J8B3fFEX86UUq+nK5duwiLId8Vm7kgCRr5Q3J7qelgHuWhE7ocCkaAl0UF48elmQAT0EGALRcdYDiaCTCBghFgcSkYPy7NBJiADgIsLjrAcDQTYAIFI8DiUjB+XJoJMAEdBFhcdIDhaCbABApGgMWlYPy4NBNgAjoIsLjoAMPRTIAJFIwAi0vB+HFpJsAEdBBgcdEBhqOZABMoGAEWl4Lx49JMgAnoIMDiogMMRzMBJlAwAiwuBePHpZkAE9BBgMVFBxiOZgJMoGAEWFwKxo9LMwEmoIMAi4sOMBzNBJhAwQiwuBSMH5dmAkxABwEWFx1gOJoJMIGCEWBxKRg/Ls0EmIAOAiwuOsBwNBNgAgUjwOJSMH5cmgkwAR0EWFx0gOFoJsAECkaAxaVg/Lg0E2ACOgiwuOgAw9FMgAkUjACLS8H4cWkmwAR0EGBx0QGGo5kAEygYARYXHfwWLVqEtm3b6kjl6KJIICCgFX76aT2qV69eFLunuj7ZuLqWmaa6URsw4MTERMyePUf8Y+XXrl0zoETespRysIN37XKoUs4J6RmP8Sg5LW8VFJPcr7zyCjw8auD8+fOF3uMpU6bA19cXsbGx0r9tfbzQ27OkBpydnfHWW28hLS0Nt27dMsrQ+N+KzgUjWS4kMJMmvYe9e/fmkjNvSR2aVcfYXt6wt7MRBZNS0jFrzTGEXrqHquWdULKErVLhjbsPkZqWoTwXt5uTJ0PFP+zeuXOnQu86vSAdO3ZCcPCvSE9PL/T2LKmBZ555Bj///IvELhgffviBUYbGlksuGMliCQu7bFQLxsoKeH+4H8o42Sst37z3EMH/C8OL/p6YOqI5OresgU4tsj5dAjyRkJSGKzdjlfz6bqytrdG6dWsMHjwEjo6OuH79OjIzM0Uxeh44cCAePXqEChUqIChoJGrVqoXw8CtITU3Vqprqee655zBo0CDxst68eVNJ16yHliHDh78EW1sb0RZlohe9f//+aNWqFaykQaelpSIjIwNRUVHo0aMn3N3dYG9fUmo/CK6uZXH58mVRd7NmzTBgwEDQlfoTGRmptEk31Ceqc9iw4ShXzl38yqakpIg8NJ7atWtLYwkHxcnt0NiHDh2KZ599Fv/++6/CQq7Y3t5eytsDPXv2ktpMEb/evXv3Fn1NSEiQs+m8litXDn369EG3bt3h4uIsfWfC8PjxY5F/0KDBKFnSHrdv31bKN2/eXIzvwoULIk7uJ7U1cuRIBAQE4MaNCDx8+FAp4+/vDz8/P1y8eFGav0FSW92k9HjcvXtXySPfEIfBgwejZUt/KT0ScXFxchLkeojrkCFDpTwtRHr37t3RuHFjwcbBoaTgmpSUpJTLzw1bLgZQa2tEC8ba2go92tRSWqUv4Z9Hb6B/h2fR87kn8UoG6SYuIQVBn+6Slk9ZAqGZlv2+UqVK2Lp1m/TiPhEv+hUfNGgg6Mvs5eWFDRs2Sl/eG1q+CerH+PHjcfDgAVFl+fLlsW3bdjg4OChN0HLjhRc6IDk5WamHXprKlSsreegL2aHD81JcFWzatEmJp5tt27Zi8uTJCA0NRWJiEkqXLi2Eh56HDx+GlStXiRdIs5BchuLopaGxafaJzPjx48fhyJEjeO211zFmzBi89NJwnDx5UrSTkPBICB2JEgVi8d577+KPP/4Qz8SD/DRyOkVevRoOT8+amD59OjZv1h6DKKTxh74bCxZ8KQmrrRAUEtLo6Gh06tRRCNyZM2dx4sRxIaJysZCQLahWrRp8fJqIKBp/fHy81E8XUY+cb926dZg5c4Z4DA4OkZaXHlK+OJQt6yZnwZUrVyRR7KE8T5s2XQidEiHdHDx4EOPGjRVRVI+np6foG3Gk5f+mTRslZiM0i+D111/Hnj27teLy+pBFPK+lVJaflkS0NKIlEn2ZjBnoyzhxkI9OYaG2XCQrx82lpEHN0otCwjJ79iw0beoj9XsSbGxs8P33P2iVJ2tj1Sp6mX2ltfab4sX45puvlS/3unU/Sb+4JTFt2jTJj9EUixd/izJlymD58hVa9VSsWFGUDwjwx/btWWI0ZMgQScj+RcOGDZQ1PN2TsMiBLJuQkBAhRKNHvyzEqmnTpjh1KlT65fYXL0xMTAwCA7uhRIkSotj69RuEsMybN1f0+4MPPhD9nTNnjlztU1fq89q1a0X+Tz/9ROQPChqp5CNBozkgISFeNN4aNTyVdH037777nhCm7t27wdu7IVavXiVZYq7CctBXVjOdBOPcuX/Qvn079OvXV1gTZH2QlSMHEjBraxuRTvlOnz4lrM7Jk6eILN279xDCQhZm165dBFvydZElRD8cciAhvXkzQsrbW7JM22Du3LnintJpWURzVVBhobpYXIiCAYEEZvfuv0BfaE2rwICiWllsJcslKLC+1qeZV0WtPPl9cHJygpubGw4fPiReKFpW7NixXfgg6Feqbt16StX0izd//jxhhdCv+Pr166UXz06Y61QPWQn79u2T1uGbxa/ct99+i2vSMrFevSd1UGVHjhwWVgD98n788UdCpDp3flFpR9cNCQet7cmspyUMvQSNGnlLy51h4lec+rdlS4go7u3tDeqTu7s7jh49Kr3Aq0W/Q0KC8f77kySR2qKrGVHXF1/MEfk3btyI+/fvS2OoK/KTdVWqVCnQ3JKFQrxovDt27NCqj5zEtEzT/MjfAdmKoiUXhXnz5olxkHDnJZAFNnz4cLEUIwtTFoPAwECtasaOHSMsUFpeUv709DS0adNG5KGlEgWyUskyJbbDhg0VS50XXugo0uQ/tEy8dOmS4CLHGftqa+wKLbU+MrdpvTpq1CjxMhTFcZIvgsKJEye1unf48GH06tVbfAkPHNgv0s6ePaOVh5ZD9EvZokVLsYygRPK3nD79JJ+8dCCrQw6XL4fJt4ILLZnI4tEX7t+PeioL+V/IT0QCSdaW3B7dyy/QsWPHtMqREGQXA80M2X0S9ItN9VNo3ryZuJ4+fVpc5T+009S1a1f5UbLwViv38g0J6S+//CItiebj889n4Isv5kpLmJnSkuoqvvvuO/z+++9yVoOu1E/ZL0YFaH5oqUrLNjlQuuauGz1HRd0XPwSUh/xNtCyl5ascSDAfPHiAqlWrylHCmqTlUGEHFhcDCJOwkKlPwkLOuqIa5C+Vk1MprS7SWp5CXNyTL52jo3YeFxc5T5z4taf85Ajetm0b3YpAPhJyMtIXVg6PH+v3A8l5c7vSL+lbb70t2t65c6dou127dsrLRRYHhTJlsvqZW13aaVmOVe24rKdz586Jm9q1tX1ddetmWSFymalTp4qlk/xM17//Piget27dKi0h9kgO42Fo166tZBV5CaFxciqt+GtoOaMZZNHUjJMtITmOytByTVMEqBx9NEXI3r6EsjNGwi7Po1wPXWlZSZaRqQMvi/QQLy7CQsOgJQP92j33XFutUb34YtYyhV4COZCJr/kll01qsmCoHgr0ZV2yZLHy2b9/nzDbKT4vIfuLk1PZ9u2fF9H9+/eTfDPvizZpR0sOZE3Q2Nq1ay9Hieunn34qHLJakQY+0LKAlhW0jKtbN2upVLt2naccorQ8oyWY5oeWJcSPdpXq1Kkj+jtgwADxTM2Tz4NCRkY6atZ8Il5Uhpzu2QMt+WiZJgfafaKQ3arq3TsrntKqVKkidtrIGqNAVo2dnZ046yMipD/kvKUfhauSkzq3kJmZJcKlSzvlli1PadqSmqeilp959OjRRrdYMqRJTE3PRAlbw3VdeqeQnKr/rAv9otGygYTjxx/X4c8//xDLHB8fH7E9e+/ePeG3oJkjRyc578hf0aRJE7FtSS+MvD16/Pgx6UvqJxzBu3btFBYEOVepDvJLGBru3LkjdqU++ugjbNy4STh6cypLPhbaap0/f77ka9ki+k3PcqCxHTp0SCxNqZ7t27eJPLQUlPss583LlZzMtKTZtGmz+HWnlzNr58ZObzXUp/femyS2+1euXIkzZ04LC4YKHjp0WJSPjLwrliTkCCcnaZ8+fYXPLrslQVYK7a6R70s62CrykfCRY10zkBXl5VUPMTGx4kgBlZP9OytWLJecuB2wdOl3EuuNYplKxw4oLF26VLOap+7pKALtpLVq1RpvvPEG1qxZo7W8eqqAAREsLjogkbCQqW7spRCJy9+nb6Ft02o6Wn46+kxYlNiOfjrl6RjaeSEfATlB6UMvwOXLl8RZFc3c+/fvl7ZCfTBx4kQRTeceBg8epGShcdMXrFGjRkJ8KIF+IV966SWRR/6lk69KwWw39KWeNm2atMPRX3LKlhbbwJSFrBDNQL4LEkUvr/riQy/fgQMHxJkWOR85M1esWCn6/c4774poOtMyatRIcS/XSedp5CDHyc/Zr+QbIedn//4DhAjStm1MzANp9+iT7FlzfH799dfEVjTxokDt7dq1S9pVWyaeX311ghAI2vWhDzmyafuezsZoBnKWk1VDljIFOvNCJ45v335yWpaYkPOZWFKgZ9qdoqUZBbJc3nxzIj799DPx3aU4sv5mzJgBmm8K9H3IKVD81q1bxFmfl18eLfl8zkobGLtzympwnJWnZw3tWTa4qGVnpJeO/A2F4WNxLGmH9r7VpOP/7k+t5bNTvXj9Af6QzsHQWZe8Bjp2HxFxQ+sLJZ9zWbNmtdiCJEcf+WpyOyxGh+zoSHhel0Nyf+mlod0eakPXl1vOS/noxSPHaG6BzP2IiAjF35Bb3tzSvvpqofiFp7MvciDLiHbFaGlDwmNIoH67ublLvqJrOWan3TfiQJZc9kDnXGi8tMSibWxyiGfPR+dT6PgAnY2hZSbNG1l7ugJZpmTVkJjlJZCvhw5IkvVW0MCWiw6CX375pY6UgkcnSv8d0bYD4eJT8Np016Dri65Zgs5E6Au5fYn1laV0EhRDv6wkQLkJndyePvGR8+m70lZ0+/btpWVhS+FEJiEloSAuhgoLtaGv39l3rXT1yxAxoK17fXMiO/d1taMrnpZGhs6VrjrkeMMX/nIJvhZrAnQUnPwmeXlxivWA9XR+zJjRkn9ig7Be6L+vIZGgw4CyQ1ZPcaMk09KOjvXnFs6fPyedM8rdmsutvDnSeFlkDurcJhNQAQG2XFQwyTxEJmAOAiwu5qDObTIBFRBgcVHBJPMQmYA5CLC4mIM6t8kEVECAxUUFk8xDZALmIMDiYg7q3CYTUAEBFhcVTDIPkQmYgwCLizmoc5tMQAUEWFxUMMk8RCZgDgIsLuagzm0yARUQYHFRwSTzEJmAOQjYWpdtZI52uU0mwAQsnABbLhY+wTw8JmAuAiwu5iLP7TIBCyfA4mLhE8zDYwLmIsDiYi7y3C4TsHACLC4WPsE8PCZgLgIsLuYiz+0yAQsnwOJi4RPMw2MC5iLA4mIu8twuE7BwAiwuFj7BPDwmYC4CLC7mIs/tMgELJ8DiYuETzMNjAuYiwOJiLvLcLhOwcAIsLhY+wTw8JmAuAiwu5iKvo136x8pr1qiqI5WjmUDxIcDiUsTmqmeXtpgycUQR61XR6Y59CTt8+8X7eLGDf9HpFPckRwIsLjliMU+klZUVhvbvgp+37TZPB4pBqw4l7RHQvBFat2xSDHqr7i6yuJhp/nu8+ByCBnfXat2/mTdKOZbErj1HRHyvru0wYlA3rTz8wASKCwHb4tJRS+pn6xaN8f4bIzD+3VlawxrWvyt++nknMjIyRPzpc5exZtE0xMQ9RMiOvVp5dT2QaEVFx+L8xXAM6t0JJexssWnLX7gdGaVVxNraSrIAGgsr4OTpC9i9/xjS07PapYxyPbfu3AMt1ZKSkvH9xh1ITk4RVkMbyXK4cvUmtvy+D4lSWk6hY7sWKOfmip9+2YnMzEyR5dnaHvBr4oX9h0/BxsYG/n4NsW3nfgRITBrVfwZ//u8Ijp48hzLOThgo9d/JyRE7dx/C2fNhOTXBcUWYgFWtpj0eF+H+WVzX6tapgRVffYgPZy6WXujjyvjq1KyGNd9+gk59J+BhQqIS38T7WSya8z7enDoPR078o8Trujmxey3iHz6Ci3Mp8fLK+egFn/XlavFYqYI7Qn6cD/JfyIEEbdDoqbgYdl1EUT2PEpPgXLoUaLlGIeFREk7/c0kIkoiQ/sTEPkTHPhOQmpYmRynXSa+/hMF9OyPkt//ho5lLQM7qAztWiHaf7zUeY4b3wpB+LyLyXjQqlndTygVLQhrYsTVsbW2UuDkLv8ePm38TovO/bcv+396VgFVVbeFfBRQFAfGlqaUo+lIUFTFRkUrETBEccgonNMvZ1Hql8crp5ayhJmIOOCX5ei8E9KvnmEpmGqIkDgmGSsqMiopA8M7adI73MslVhnvuXfv7LmefPa79r7v/u9bau8S+Aycwd+EXSj1n9A8BdosqWSeODi3FL/3Z6CtaM1OsJVTahJrEQg0u/xaP24kp6NShtVb70l7q2dTFrxfjQBt46LiPcOduprBiXnZyEN12BS4SG5w2bGf30ZizYJ3Y+NvXz9ca1kqyHtZt2oNOPUdi/4EIWNQxR9fOjpgsWVzUL0oiGhtrS7i6FP//YV66ZhtuSbJ79XEDWSwL504Sbt+C5V8iQ7LG5GRqYgKPQVMwcPQHyMnJFZZS9MWr6PbGOPhOnY/8/HzJPfSUm/NTJQgwuVSyovaEHMDJM9GSNfIhapvXErPb2lihT8+u4pdZUxz65V65cKbYoBu2/kezqtQ8bdCxU+chRXKPyBKZ8o+lon2/3q4SQdSGbT0r/CTJQJYAWRz7D0ZIbtcPqCUFS8myklNq2h1s2hEi3KWl/kGimCyXiFPnRD+qo9Tm783Fs7g/b89YKJEDsHG1H/p5dAe5YGTJaKaV63ciKSUNcb/fVNyf2X6rcV+ylCLPXxKWjbWVpWYXzqsAASaXKlAS/XLfy7yPaROGidmHDeqNiJ/P40ZCopY0o4d5op51XXzwqb8Ss9BqUMILbVQ5xkFNKF5Bv/5EAnTSQiny/GXxlP/89Eu0yFIsRU5p6XflLDIlF4kSxX/kJFtZ5O6UlG7+kYQNQf+BtZWFICmZ6DTbX427obw+yi5wr1LT7yhl2X+VKQWcUQUCHNCtAjVR4HTah8ulYKW5cE+Gentgpt/KIpJ8E3oQwVKspKSAaZEOfxWYmZlpVZEFRHETGodcJEoWtc212lhZWoj3jL/qtSqf8aVt6xZiBFMpuNzm73Y4E3XxGUfk7mpAoOSfHDVIr2IZyR0hy8Dz9R6gE5mzhSwJWhoFZnUlFupXX3J7GjX8G2VFGuTZUzzP//qbOIkhK+aV7k5/1RY8+rgXXEo7euIXrXJdX8xMHweJqW/PHs4ga+iHiEgRT/Ff/IFWoFbX8bm9ehBgcqliXd1/kAX/wN3lKgVZKXs2L8HUt4fCb/bbmPOer3BJ5CPhM2dj0PSF57Fzw0JxjyZgxRzQqVTc7wki9vG0wkwcOxinD23H3JnjxBAUU1ry6XTpGPsRZv1zFVYHfCWCwsvnv/e0U3A/FSHAblEVK+u7Qz+WuwTxN24JN2iCdNRLiY6Q/f61Xrnr8s6sf2HLmk/h6GCPdm3spfhMPn6LvQGfdz/WkiUfRW8paMZy5Ps4f/5ZcIdFPrKmOzSU1ix+X7h9s/+5WpAbBZApvkTWDJ1c5VGkV0pyf/FSzB+Sr7Ak+VIZJ/1GgO+56Ld+dJaO7qdci/8Db/r+QwqiWoKuy9NxcEmJLJgbCbcFwZTURpdyujsjB2V16cdtDQ8BtlwMT6fKiuguieZ9EqVCI0NWTnkmJpbyRFPdYzG5qFt/RaSPi0/AldjrRcq5gBGobATYLapsxHk+RsBIEODTIiNRNC+TEahsBJhcKhtxno8RMBIEmFyMRNG8TEagshFgcqlsxHk+RsBIEGByMRJF8zIZgcpGgMmlshHn+RgBI0GAycVIFM3LZAQqGwEml8pGnOdjBIwEASYXI1E0L5MRqGwEmFwqG3GejxEwEgSYXIxE0bxMRqCyETDJSztX2XPyfIwAI2AECLDlYgRK5iUyAlWBAJNLVaDOczICRoAAk4sRKJmXyAhUBQJMLlWBOs/JCBgBAkwuRqBkXiIjUBUIMLlUBeo8JyNgBAgwuRiBknmJjEBVIMDkUhWo85yMgBEgwORiBErmJTICVYEAk0tVoM5zMgJGgACTixEomZfICFQFAkwuVYE6z8kIGAECTC5GoGReIiNQFQgYHLl07twZGzYEolatWlWBJ8/JCDACfyFgcOQSHR0NExMTrFv3RYURjP0L1nBu3QCO9vVRrVrVfpd8fHzg7+9fqULUrFkTAQEb0Ldv30qZ94svvsCbbw6plLl4kvJDwODIJSsrC1OnThEIlTfBmJlUx+ezXsWqGa/gk/EuWDSxO/x8u6BGjeqoXcsE9k2slU9D2zo6aalu3bqYM2cOunTpolM/D4/eeO21njr1edbG5ubmcHV1RY8ebs86VJn6u7m9gl69epWpLTfSHwRM9EeU8pNEJhgiF/oQ2VDZsybXDo3RvJGVMkx+fj4iLyfBxrIm5k/oihcaWCp1lIm5lopFW04h82GOVnlxLw0bNsRbb/mgdu06OHXqVHFNuIwRUBUCBkkupIGKIJjE1AfYGn5BUXD87btIyXiIZdN6oL6VuVIuZ9rY2aKn84sIPR4rFxX7bNWqFby8vEQd5UeNGoX9+/cjNTVVlD333HMYPHgwHj3Kxrff/hfp6enFjiMXVq9eHd27dwf94l+8GIODBw/i7t27crV4NmjQQMxpZlYTYWGhuH79ulY9vbz0Umt4evYTchw4cAA3b94s0kazoLQxHRwc4OTkhN27dyM3N1d0I/dq6NCh+PHHHxEb+xgjkv3VV18DubihoXs1p+C8ihCoZmfXLF9F8uosKgV2yXqh9KwWjINEFq2a2igymJnWgLdbC1iYmyplhTOHz9zA58GRhYu13t9//32MGTNWq2z69Ok4cuQwPvnkEwwZMlSrbtWqldi6dasoCwraJjato2M78U4bPCwsHOS6yCknJweTJk1ULKJ58+YLspLr6RkREYGJE98VRUROISEhsLNrrtkEa9euxcaNgbC2tsbx4ycQHh4uuXIfiTZPGnPZsuV44403JNLrphBdu3bt8NVXu8VaaE1mZmb43/8OwNbWVpk3Pj4eTZs21ZJPqeSMXiNgcDGXwmiTBbNo0UI4OztjwICBhat1endu0wC+ng7Kx+f1l0ollrIOvmLFCmmzDxLNaVO3a9dWEEufPn0EsVy7FofevT0kK8ITaWmpmDlzFsjCKS4FB38tiGXlyhXo3NkZfn5+IsC9bNky0dzLy1sQC1kh/fr1lWIZ7oiJiRGWzqRJk0SbFStWCmI5cuSIFFdxha/vWNy/f18i56mCWArPW5YxC/cp7t3ff40gFrKSiITGjBkDchc5qRMBgycX+nIGBATg66+/RnDwblVpadCgAsIh1+HWrVuIj/9dIpaZ0glVtWJPaiwsLFC/fn38/PPPCAoKEq7h3r0h+OijD7F3b6hYe//+/cVzxIjhwhVKTEyU3LCRyMvLAwWHKVFQmdyo6dOnISMjA2fOnMH48eMkK2OXiAmJRhp/yjKmRvMSsx07dhTzzpo1UzwjI3/BggULSmzPFfqNgMHGXAh2IhZyH44dO47Fiz/Tb00UI1379h1E6alTPxepdXRsX6TMza3g9Ob06dNadRS/oQ8le3t7PHz4UJCG3Cg7O1uyiNLQpEkTkEtEJ1fnz5+Xq8XzwoULoA8lcos005PG1GxbUp7mrVOnTpF5jx49UlIXLtdzBAyWXNROLPS9Ieuhdu3awvLS/B5ZWNQR1olmGeVTUlJEkbX14xOtwm3ITbSyKlpP8Q6KzZAFQx+ygsqanjSm5jimpo/jU5p5mpNO38zNtS8/Wlpqn8BpjsV5/UbAIN2iiiKWrEcFpxy6qDQru2x98vIK4uqWlo83NZ2WUKJf7w0bAsQnKGircJGSkpKKiEHuC23QwvdeFi5cKJ3SBIv2FF+hTU0xKDnZ2dmBNvG1a3GiiEjqxRdfgI3N4+D1sGHDhGtlb99S7qY8yzImxYooad5X6dq1mzIGZdLT09CsmZ0WsdHxPCd1ImBwlktFEQup91hUAt56vbVOt3KPnU0o0zcjLi5WHNG6uvbAjBkzsG3bNmzevAnu7u7YuXOXiBklJSVi7FhfEVeZPXs2Ll26pDU2/fqfPHkS3bp1w549/8a+feFwcekqLrzJbWlM2uCBgRulNnuk4+1HGD58uBgnMDBQPLds2SzFaeaIE6Ndu75Co0aNMHDgQCEfyUluk2Yqy5jHjh2Dj89IEYwmHRHB0btmCg4OxuTJU8RpF8XImjZ9UQo6e2o24byKEKhhY2M9T0XyPlHUhg2fF5ufTkvKO2U+yEHUlWSQjZFyJwsJyZklfq5cT8eWsAv4NTalTGKQxdG4cSM4OLRFp06dcO5clHB94uLiBDm8/PLLEml0l45rTSViCJSC0wWWiLe3t9j8FLSmFB4eJqyStm3bSv16SBbIi6Axxo4dI4gkOTkZV65clu7AuEmnSZ3FMTa5Q8uXL5fiMvvEGGQx0R0Usm6IqNq0aYN79+5h3DhfkMVEx/vjxo3D5cuXcOjQIZRlzBs3bqB5czu0bt1arK99+/b44YcfpFMpO0RFRQlSJMuLjp1JdhcXF7Rs2Qo7duwAtaUj6X37CuQTQvIfvUfA4O+56L0GCglI/10UxVkKX3qjICoFPBMSymYJ0bC0cWlTy5fWCk0lArN08lTapbznn39eEEtmZmbh7sW+k5yljUmBW1kuCiSXlFq0aCEIpSTZS+rH5fqDAJOL/uiCJWEEDAoBgwzoGpSGeDGMgEoRYHJRqeJYbEZA3xFgctF3DbF8jIBKEWByUaniWGxGQN8RYHLRdw2xfIyAShFgclGp4lhsRkDfEWBy0XcNsXyMgEoRYHJRqeJYbEZA3xFgctF3DbF8jIBKEWByUaniWGxGQN8RYHLRdw2xfIyAShFgclGp4lhsRkDfEWBy0XcNsXyMgEoRYHJRqeJYbEZA3xFgctF3DbF8jIBKEWByUaniWGxGQN8RYHLRdw2xfIyAShFgclGp4lhsRkDfEWBy0XcNsXyMgEoRYHJRqeJYbEZA3xFgctF3DbF8jIBKEWByUaniWGxGQN8RYHLRdw2xfIyAShFgclGp4lhsRkDfEWBy0XcNsXyMgEoRYHJRqeJYbEZA3xFgcilHDdE/+k7/gDsnRoARAJhcyulbQP/A+pdfbkLbtm3LaUTDG8bHxwf+/v6GtzBeUbEImBRbyoU6I+Dh4YFHj7IQGRmpc19j6eDh0RtOTk7GslyjXydbLjp+BerWrYu1a9fBxsZGq+fo0WOwY8cO5Ofnw9TUFOvXr0eDBg202vALI2BMCLDlooO2iTTIrL979x7u3Lmj9OzQoQMo3hIaGirKcnJycPt2IgICAjB69GhkZmYqbUvKdOvWDQ0bNkRISAiGDRuOZs2aYf/+fTh37lyRLkRaXl5eMDOribCwUFy/fl1p06JFC9BYYWFhcHV1Rfv2HXDw4AGcOnUK1tbWGDFiBCwsLPHdd98hOvq80k8z066dIzp0aI9Dhw7jjz8SRBWRqre3N65cuSLG8vYegJSUZNy8mYCBAwfiwYMH2L59G7KysuDm5iY+V6/GSpjsFXWa43PeOBCoZmfXLN84lvrsq1yyZCkaNWqECRPellygR8qAq1atRlxcHNatW6uUUQxm9erPYW5eCxMnTkReXp5SV1wmJGQvmjZtKhHXHdSrZ6s0iY2NxYAB3sr7vHnzMXjwYOWdMhEREdIc74qyDz/8CCNHjpTI7bYgK7lhSMi38PT0hImJqVyEpUuXYOfOncq7nOnSpQs2bdqMhIQE9Onzuijevn0HOnbsiGnTpuLo0aM4e/Ys7t9/ACKdatWqiTZEolFRUYLU5LHS09PRq5c7srOzERS0TbhFjo7t5Gp+GjAC7BaVUbkmJiZwdu6E48ePaRFL48aN0aNHDwQH79Yaicjk8OHDcHBoKzagVmUJLzRH9eo1MGTIm+jZ8zXJaokCWSJz5swVPby8vAWx3Lx5E/369RWbNiYmBt27d8ekSZO0RiUry929pyAmsqQGDBgoWSq/omtXF4wZM0a4b2PH+mr1kV/IygkPDwOtbcKECZIsPQWxHDlyRBCL3M7KykpyEddIdR2wb98+ySKyEFYTkWmnTk4S0ZwV7iNZUJyMDwEmlzLqPDc3F5MnT4av7zj07dtX6TVy5Ch8//33kouQopRRxsXFBXPnzsV7781ARkaGVl1pL++++w4uXbqE5ORk4VLl5uYIF4P69O/fX3QdMWK4cIUSExMxatRIYRVRsFQzrVixHElJSSDL5/z5Avdn5sz3hIsWGfmLsGwKx400+3/88ccgq2Py5Ckgi42sklmzZmo2QWpqqnRC9iUImyVLFos6slwiIk4IS4XqKBHBcjI+BJhcdNA5xRtmz54Fck1sbW3FLzXFG3bs2K41ClkN5CotWLAAp0+f1qor7YWsHbJE5ETvyckpSmDY3t4eDx8+1CIrcjfS0tLQpEkTuZt4Xr16VXnPzi5w4YgM5KTp1sllmk+a+513JkhulInk2pljypTJgkQ026SlPR5PjitlZKQrTe7duyfy1asXuE1KBWeMAgEmFx3VfPLkSSmY2l/8alPsIzo6GpcvX9YahdyQwYMHSa5CuFb5k14oTkMfzVSzppmyqSlYSpu9cDIzMwPNWd5J0+Jwd+9V3sPzeAaOgPY32cAXW17Lo2ApkYCPz0hxQlLcuLdu3Squ+IllgwY9DtZSzMPGpp50InND9COrhqwiZ2dnZRw7OztYWlri2rU4pexpMrQeTeIil8nP72OQ60WnUaNGjUKrVq2eZmjuY6QIFP0ZNFIgdF02bfJDhw7hxIkTunYttT3FOtq0aS3FOzIwfPhwcRKzdetW0Wfz5k1SELcXAgM3Ys+ePSKwTG0oBQYGiufT/CFiOXnyJ0FcFPAll2nz5s2oUcMEU6dOFa4YHW1v3PglXn31laeZgvsYIQJsuTyl0mkD0lEuXZorr0SuDZ3IDBkyVIp3vCNiHUFBW8WdFZqDLBcKypJ7RMfN48ePF1N/9tln0inWcZGnWAml3Nw/xbOkP/n5eVqyy8fJ1J7GbtmylXTPZr8UXL6I+Pjf8c03/xZxJvnkitoVt/Y//3x85C7LIJfRnJyMBwG+56InuqZ7LnQRz8mpo/iPHylASyc9JSW6EEeEQCc65ZHkWI9MTuUxJo9h3AiwW6SH+ierqDRiIZF1Od4uyxKZVMqCErfRBQEmF13QqsC2MTEXpPsqpbsyFTg9D80IlDsC7BaVO6Q8ICPACBACHNDl7wEjwAhUCAJMLhUCKw/KCDACTC78HWAEGIEKQYDJpUJg5UEZAUaAyYW/A4wAI1AhCDC5VAisPCgjwAgwufB3gBFgBCoEASaXCoGVB2UEGAEmF/4OMAKMQIUgwORSIbDyoIwAI/B/PIbBrQe9kLQAAAAASUVORK5CYII=;" vertex="1" parent="1">
          <mxGeometry x="951.88" y="916" width="165.12" height="348" as="geometry" />
        </mxCell>
      </root>
    </mxGraphModel>
  </diagram>
</mxfile>
